<?xml version="1.0" encoding="utf-8"?>
<!-- Generator: Adobe Illustrator 16.0.3, SVG Export Plug-In . SVG Version: 6.00 Build 0)  -->
<!DOCTYPE svg PUBLIC "-//W3C//DTD SVG 1.1//EN" "http://www.w3.org/Graphics/SVG/1.1/DTD/svg11.dtd">
<svg version="1.1" id="Capa_1" xmlns="http://www.w3.org/2000/svg" xmlns:xlink="http://www.w3.org/1999/xlink" x="0px" y="0px"
	 width="124.72px" height="62.36px" viewBox="0 0 124.72 62.36" enable-background="new 0 0 124.72 62.36" xml:space="preserve">
<g>
	<g>
		<path fill="#3BB4CA" d="M98.933,47.524l-0.699-0.313l0.072-1.986c0.006-0.07,0.011-0.141,0.015-0.211
			c0.013-0.23,0.019-0.521,0.019-0.87c0-1.208-0.268-1.985-0.802-2.334c-0.107-0.07-0.218-0.136-0.33-0.197
			c-0.313-0.171-0.576-0.256-0.785-0.256c-0.145,0.002-0.286,0.042-0.411,0.116c-0.074,0.044-0.147,0.101-0.22,0.168
			c-0.01,0.01-0.02,0.021-0.03,0.03c-0.167,0.182-0.296,0.396-0.377,0.63c-0.119,0.334-0.18,0.74-0.18,1.217
			c0,0.65,0.121,1.294,0.364,1.934c0.176,0.46,0.39,0.827,0.645,1.1c0.096,0.104,0.201,0.196,0.315,0.277
			c0.047,0.036,0.091,0.074,0.133,0.116c0.087,0.087,0.145,0.17,0.168,0.25c0.009,0.027,0.013,0.057,0.013,0.087
			c-0.002,0.044-0.007,0.087-0.016,0.131c-0.098,0.497-0.211,0.992-0.337,1.482c-0.045,0.183-0.09,0.364-0.136,0.546
			c-0.429,1.709-1.006,3.377-1.726,4.984c-0.143,0.318-0.292,0.634-0.45,0.945c-0.446,0.878-0.843,1.465-1.188,1.76
			c-0.049,0.043-0.102,0.083-0.157,0.118c-0.028,0.014-0.058,0.026-0.088,0.038c-0.05,0.019-0.103,0.029-0.156,0.029
			c-0.093-0.001-0.185-0.024-0.268-0.067c-0.154-0.076-0.314-0.215-0.482-0.419c-0.136-0.168-0.256-0.349-0.358-0.538
			c-0.104-0.192-0.195-0.391-0.273-0.595c-0.016-0.041-0.031-0.081-0.046-0.121c-0.328-0.989-0.493-2.025-0.489-3.067
			c0.001-0.183,0.006-0.365,0.015-0.548c0.029-0.667,0.106-1.634,0.229-2.901c0.033-0.34,0.064-0.68,0.095-1.02
			c0.082-0.923,0.132-1.62,0.146-2.09c0.003-0.091,0.004-0.181,0.004-0.271v-0.21l-0.036-0.14c-0.037-0.132-0.16-0.268-0.366-0.407
			c-0.051-0.034-0.104-0.067-0.156-0.098c-0.084-0.049-0.169-0.093-0.258-0.133c-0.158-0.077-0.331-0.122-0.508-0.13
			c-0.021,0.001-0.04,0.001-0.061,0.002c-0.08,0.004-0.13,0.016-0.15,0.034c-0.024,0.021-0.045,0.047-0.06,0.076
			c-0.07,0.124-0.143,0.37-0.213,0.741c-0.002,0.007-0.003,0.013-0.004,0.02c-0.055,0.311-0.127,0.617-0.216,0.919
			c-0.248,0.865-0.665,1.941-1.249,3.228c-0.138,0.305-0.28,0.608-0.428,0.91c-0.535,1.094-0.936,1.729-1.204,1.907
			c-0.023,0.017-0.05,0.03-0.077,0.04h-0.033c-0.082-0.005-0.154-0.053-0.19-0.127c-0.128-0.206-0.192-0.66-0.193-1.363
			c0-0.003,0-0.006,0-0.009c0.001-0.071,0.003-0.143,0.008-0.214c0.01-0.18,0.029-0.398,0.063-0.658
			c0.038-0.279,0.09-0.557,0.154-0.831c0.07-0.308,0.158-0.631,0.264-0.973c0.066-0.213,0.136-0.425,0.209-0.635
			c0.065-0.183,0.126-0.367,0.184-0.553c0.108-0.356,0.18-0.655,0.214-0.898c0.014-0.096,0.021-0.192,0.021-0.29
			c0-0.326-0.251-0.6-0.749-0.82c-0.237-0.105-0.483-0.188-0.736-0.247c-0.233-0.055-0.472-0.083-0.71-0.083
			c-0.086-0.001-0.172,0.005-0.258,0.016c-0.194,0.025-0.344,0.082-0.449,0.17c-0.021,0.018-0.042,0.037-0.061,0.058
			c-0.114,0.134-0.22,0.475-0.317,1.025c-0.024,0.135-0.046,0.269-0.065,0.404c-0.045,0.299-0.081,0.599-0.109,0.899
			c-0.009,0.097-0.017,0.192-0.023,0.288c-0.184,0.026-0.365,0.057-0.547,0.091c-0.25,0.049-0.521,0.108-0.817,0.185
			c-0.65,0.163-1.092,0.245-1.324,0.245h-0.069l-0.07-0.036c-0.052-0.035-0.093-0.084-0.12-0.141
			c-0.049-0.109-0.077-0.227-0.082-0.347c-0.005-0.058-0.007-0.116-0.007-0.175c-0.002-0.721-0.19-1.428-0.546-2.054
			c-0.053-0.096-0.109-0.188-0.168-0.28c-0.477-0.744-1.04-1.197-1.69-1.36c-0.466-0.114-0.732-0.174-0.802-0.174
			c-0.044,0.001-0.088,0.004-0.131,0.011c-0.114,0.02-0.226,0.048-0.335,0.085c-0.043,0.015-0.085,0.029-0.127,0.044
			c-0.302,0.116-0.558,0.366-0.766,0.749c-0.197,0.364-0.305,0.771-0.313,1.186c-0.001,0.029-0.001,0.058-0.001,0.087
			c-0.017,0.818,0.397,1.586,1.09,2.021c0.274,0.188,0.598,0.352,0.974,0.49c0.136,0.05,0.272,0.096,0.41,0.137l1.22,0.348
			l-0.104,0.802c-0.159,1.125-0.507,2.215-1.029,3.224c-0.15,0.295-0.319,0.58-0.505,0.854c-0.185,0.27-0.376,0.505-0.573,0.704
			c-0.192,0.199-0.41,0.372-0.647,0.516l-0.626,0.384l-0.244-0.593c-0.078-0.177-0.124-0.436-0.136-0.776
			c-0.003-0.066-0.004-0.133-0.004-0.199c0.003-0.622,0.082-1.24,0.235-1.843c0.136-0.538,0.313-1.063,0.531-1.572
			c0.057-0.138,0.112-0.276,0.166-0.416c0.17-0.443,0.272-0.775,0.307-0.998c0.009-0.051,0.014-0.103,0.015-0.154
			c0-0.027-0.003-0.056-0.01-0.083c-0.013-0.056-0.032-0.109-0.06-0.16c-0.057-0.11-0.135-0.209-0.229-0.291
			c-0.141-0.118-0.298-0.214-0.468-0.283c-0.352-0.152-0.732-0.229-1.115-0.228c-0.007,0-0.014,0-0.021,0
			c-0.03,0.004-0.061,0.009-0.09,0.015c-0.004,0.001-0.008,0.002-0.012,0.003c-0.013,0.002-0.025,0.004-0.038,0.007
			c-0.026,0.005-0.054,0.009-0.08,0.01c-0.001,0-0.002,0-0.003,0c-0.418,0.047-0.721,0.238-0.908,0.576
			c-0.186,0.336-0.358,1.026-0.521,2.073c-0.007,0.035-0.004,0.067-0.008,0.104c-0.992,3.128-2.08,5.295-3.267,6.482
			c-0.48,0.442-0.835,0.71-1.066,0.8c-0.049,0.021-0.102,0.033-0.154,0.036c-0.064-0.002-0.127-0.019-0.184-0.049
			c-0.142-0.069-0.302-0.216-0.477-0.439c-0.195-0.263-0.349-0.554-0.455-0.862c-0.324-0.885-0.486-2.153-0.486-3.807V52.02
			c0.009-0.37,0.021-0.74,0.036-1.109c0.04-0.979,0.097-1.696,0.17-2.15c0.015-0.093,0.032-0.186,0.054-0.277
			c0.078-0.305,0.221-0.589,0.42-0.832c0.137-0.171,0.303-0.336,0.497-0.492c0.037-0.029,0.074-0.059,0.111-0.086
			c0.78-0.59,1.648-1.644,2.605-3.164c0.225-0.358,0.442-0.722,0.652-1.088c0.498-0.857,0.958-1.737,1.377-2.636
			c0.489-1.04,0.897-2.116,1.222-3.219c0.115-0.419,0.215-0.842,0.297-1.268c0.08-0.419,0.134-0.815,0.164-1.188
			c0.017-0.215,0.025-0.431,0.025-0.646c0-0.915-0.167-1.59-0.501-2.021c-0.038-0.05-0.08-0.097-0.125-0.141
			c-0.276-0.277-0.554-0.462-0.832-0.557c-0.137-0.046-0.279-0.07-0.424-0.07c-0.278,0-0.581,0.104-0.905,0.313
			c-0.298,0.186-0.57,0.409-0.81,0.666c-0.76,0.786-1.597,2.07-2.512,3.854c-0.021,0.038-0.04,0.077-0.061,0.115
			c-0.007,0.014-0.014,0.027-0.02,0.04l-0.014,0.03c-0.008,0.018-0.017,0.035-0.024,0.053c-0.375-0.026-0.751-0.042-1.127-0.048
			c-0.208-0.004-0.416-0.006-0.624-0.006h-0.382c-0.388,0-0.775,0.003-1.162,0.01c-0.957,0.018-1.684,0.058-2.179,0.12
			c-0.095,0.013-0.19,0.027-0.284,0.045c-0.092,0.017-0.183,0.031-0.274,0.045c-0.183,0.032-0.367,0.052-0.553,0.06
			c-0.003,0-0.006,0-0.008,0c-0.033-0.001-0.066-0.006-0.099-0.014c-0.164-0.043-0.324-0.1-0.479-0.169
			c-0.075-0.031-0.15-0.063-0.226-0.097c-0.137-0.063-0.275-0.123-0.416-0.18c-0.393-0.158-0.694-0.237-0.903-0.238
			c-0.002,0-0.003,0-0.004,0c-0.271,0-0.514,0.147-0.729,0.44c-0.066,0.092-0.126,0.189-0.178,0.291
			c-0.101,0.216-0.219,0.378-0.355,0.486c-0.08,0.065-0.173,0.113-0.272,0.142c-2.075,0.471-3.517,0.85-4.32,1.14
			c-0.154,0.054-0.306,0.115-0.454,0.184c-0.213,0.098-0.421,0.207-0.623,0.326c-0.286,0.166-0.551,0.367-0.787,0.599
			c-0.088,0.087-0.17,0.181-0.245,0.279c-0.175,0.234-0.263,0.46-0.263,0.679c0.001,0.217,0.09,0.424,0.246,0.573
			c0.076,0.079,0.17,0.153,0.282,0.222c0.066,0.04,0.135,0.076,0.205,0.109l0.453,0.21l0.418-0.487
			c0.131-0.149,0.276-0.285,0.434-0.406c0.254-0.198,0.563-0.388,0.925-0.57c0.146-0.08,0.297-0.154,0.449-0.223
			c0.37-0.167,0.83-0.343,1.382-0.527c0.14-0.046,0.278-0.091,0.418-0.135c0.548-0.174,0.898-0.262,1.055-0.264
			c0.002,0,0.005,0,0.008,0c0.021,0,0.034,0.019,0.036,0.057c0,0.004,0,0.008,0,0.012c-0.001,0.059-0.006,0.116-0.014,0.175
			c-0.032,0.254-0.12,0.673-0.266,1.255c-0.306,1.318-0.551,2.65-0.732,3.991c-0.064,0.469-0.122,0.938-0.174,1.408
			c-0.014,0.121-0.027,0.241-0.042,0.362c-0.095,0.79-0.161,1.216-0.202,1.277c-0.046,0.093-1.29,0.313-3.729,0.662
			c-0.026,0.005-0.053,0.011-0.078,0.019c-0.028,0.009-0.057,0.02-0.083,0.033c-0.024,0.012-0.048,0.025-0.071,0.04
			c-0.042-0.058-0.093-0.108-0.149-0.151c-0.07-0.052-0.156-0.08-0.243-0.08c-0.037-0.001-0.074,0.004-0.109,0.014
			c-0.079,0.023-0.142,0.083-0.17,0.16c-0.019,0.074-0.039,0.148-0.06,0.223c-0.116,0.414-0.363,1.233-0.74,2.461
			c-0.253,0.855-0.539,1.701-0.86,2.535c-1.038,2.662-2.178,4.245-3.418,4.747c-0.279,0.115-0.578,0.175-0.88,0.176
			c-0.261-0.007-0.514-0.086-0.73-0.23c-0.341-0.211-0.687-0.565-1.04-1.063c-0.151-0.214-0.293-0.433-0.426-0.658
			c-0.055-0.1-0.108-0.201-0.159-0.303c-0.334-0.676-0.651-1.358-0.954-2.049c-0.063-0.141-0.126-0.281-0.188-0.423
			c-0.41-0.927-0.614-1.431-0.614-1.512c0.004-0.007,0.01-0.014,0.018-0.017c0.079-0.057,0.435-0.236,1.063-0.54
			c1.104-0.482,1.847-1.004,2.227-1.567c0.11-0.16,0.194-0.338,0.247-0.525c0.009-0.025,0.015-0.053,0.02-0.08
			c0.006-0.03,0.01-0.061,0.012-0.092c0.003-0.035,0.005-0.071,0.005-0.106c-0.003-0.298-0.086-0.59-0.24-0.845
			c-0.101-0.168-0.22-0.324-0.356-0.465c-0.027-0.028-0.056-0.057-0.084-0.085c-0.157-0.156-0.335-0.291-0.526-0.402
			c-0.29-0.169-0.62-0.258-0.955-0.259c-0.454,0.01-0.896,0.154-1.267,0.416c-0.527,0.351-1.05,0.92-1.565,1.709
			c-0.156,0.239-0.304,0.483-0.443,0.732l-0.626,1.115v-1.742c0-0.171,0.002-0.341,0.007-0.511c0.018-0.541,0.062-0.937,0.135-1.186
			c0.017-0.058,0.038-0.114,0.065-0.168c0.043-0.078,0.096-0.15,0.156-0.217c0.206-0.233,0.56-0.515,1.064-0.846
			c0.135-0.083,0.265-0.174,0.389-0.273c0.605-0.474,1.604-1.405,2.992-2.794c0.987-0.992,1.915-2.041,2.778-3.143
			c0.832-1.06,1.581-2.182,2.24-3.356c0.354-0.633,0.674-1.284,0.955-1.953c0.28-0.675,0.493-1.316,0.635-1.927
			c0.142-0.584,0.216-1.182,0.221-1.782c0.004-0.421-0.044-0.841-0.144-1.25c-0.155-0.651-0.492-1.245-0.972-1.712
			c-0.395-0.349-0.929-0.523-1.601-0.523c-0.645-0.002-1.279,0.153-1.85,0.453c-0.929,0.488-2.014,1.493-3.257,3.015
			c-1.214,1.477-2.26,3.084-3.118,4.792c-1.697,3.39-2.545,6.945-2.545,10.663c0,0.704,0.032,1.382,0.087,2.048
			c-0.149,0.348-0.315,0.783-0.513,1.36c-0.008,0.025-0.017,0.051-0.025,0.076c-0.714,2.12-1.508,3.971-2.384,5.555
			c-0.008,0.013-0.015,0.025-0.021,0.039c-0.151,0.273-0.31,0.544-0.474,0.81c-0.653,1.051-1.168,1.576-1.545,1.576
			c-0.414,0-0.636-0.336-0.661-1.01c-0.002-0.047-0.003-0.094-0.003-0.141c0.006-0.377,0.043-0.752,0.109-1.123
			c0.263-1.567,0.992-3.958,2.19-7.17c0.18-0.495,0.353-0.992,0.517-1.493c0.485-1.479,0.752-2.588,0.801-3.324
			c0.006-0.079,0.009-0.157,0.01-0.235c0-0.279-0.037-0.534-0.107-0.768c-0.235-0.896-0.578-1.466-1.024-1.71
			c-0.167-0.09-0.354-0.137-0.543-0.136c-0.814,0-1.73,0.69-2.753,2.073c-0.417,0.561-0.805,1.141-1.163,1.74
			c-0.419,0.694-0.776,1.424-1.067,2.18c-0.014,0.04-0.028,0.079-0.044,0.118c-0.075,0.187-0.226,0.54-0.454,1.06
			c-0.055,0.125-0.109,0.249-0.165,0.373c-0.255,0.576-0.502,1.155-0.742,1.737c-0.056,0.135-0.11,0.271-0.164,0.406
			c-0.649,1.673-1.069,2.625-1.254,2.856c-0.016,0.024-0.032,0.048-0.05,0.071c-0.033,0.051-0.076,0.096-0.126,0.13
			c-0.01,0.006-0.021,0.009-0.033,0.009c-0.014-0.005-0.022-0.018-0.023-0.033c-0.03-0.095-0.045-0.395-0.045-0.897
			c0-0.003,0-0.007,0-0.01c0.004-0.854,0.078-1.706,0.222-2.548c0.136-0.822,0.335-1.681,0.596-2.576
			c0.062-0.21,0.126-0.418,0.192-0.626c0.394-1.231,0.592-2.057,0.592-2.475c0.002-0.405-0.169-0.792-0.47-1.063
			c-0.102-0.097-0.213-0.184-0.33-0.26c-0.062-0.038-0.123-0.075-0.187-0.11c-0.204-0.113-0.351-0.17-0.442-0.17
			c-0.17,0-0.38,0.243-0.63,0.726c-0.061,0.117-0.117,0.235-0.172,0.355c-0.382,0.882-0.664,1.805-0.84,2.751
			c-0.116,0.612-0.198,1.231-0.246,1.854c-0.318,0.454-0.721,1.122-1.214,2.017c-1.276,2.358-2.2,3.62-2.771,3.779
			c-0.039,0.012-0.08,0.018-0.12,0.019c-0.102-0.001-0.2-0.031-0.285-0.087c-0.059-0.037-0.111-0.082-0.159-0.132
			c-0.028-0.03-0.055-0.062-0.08-0.095c-0.078-0.09-0.14-0.192-0.183-0.304c-0.11-0.271-0.165-0.646-0.165-1.125
			c0-0.86,0.232-2.276,0.697-4.251c0.442-1.878,0.674-2.936,0.694-3.176c0.002-0.01,0.002-0.021,0.002-0.03
			c0-0.111-0.001-0.222-0.005-0.333c0-0.229-0.023-0.456-0.071-0.68c-0.004-0.012-0.007-0.022-0.011-0.033
			c-0.019-0.057-0.043-0.111-0.073-0.163c-0.097-0.151-0.219-0.285-0.361-0.394c-0.148-0.121-0.313-0.22-0.489-0.294
			c-0.199-0.083-0.412-0.126-0.628-0.125c-0.058-0.001-0.116,0.005-0.173,0.016c-0.056,0.01-0.11,0.028-0.16,0.056
			c-0.069,0.039-0.123,0.1-0.154,0.173c-0.021,0.069-0.041,0.14-0.058,0.21c-0.084,0.353-0.197,0.99-0.34,1.914
			c-0.013,0.082-0.024,0.163-0.036,0.244c-0.168,1.064-0.303,2.134-0.402,3.207c-0.021,0.238-0.031,0.478-0.031,0.717
			c-0.002,0.098-0.002,0.195-0.002,0.293c-0.002,0.427,0.014,0.854,0.046,1.279c0.091,1.18,0.319,2.067,0.685,2.66
			c0.373,0.603,0.883,0.905,1.533,0.905c0.762,0,1.467-0.357,2.113-1.07c0.064-0.071,0.127-0.145,0.188-0.22
			c0.16-0.199,0.312-0.405,0.454-0.617c0.312-0.46,0.654-1.033,1.026-1.718c0.118-0.219,0.235-0.439,0.35-0.66
			c0.012-0.023,0.024-0.048,0.036-0.071l0.072-0.146c0.006-0.015,0.013-0.029,0.02-0.043c0.023,1.531,0.284,2.666,0.79,3.386
			c0.11,0.158,0.24,0.302,0.387,0.428c0.324,0.302,0.615,0.454,0.871,0.454c0.257,0,0.518-0.25,0.783-0.75
			c0.25-0.463,0.602-1.319,1.059-2.57c0.037-0.101,0.074-0.202,0.11-0.304c0.567-1.557,1.219-3.08,1.953-4.564
			c0.176-0.357,0.355-0.711,0.54-1.063c0.986-1.894,1.85-2.84,2.594-2.84c0.023,0,0.047,0.001,0.07,0.002
			c0.116,0.006,0.174,0.029,0.174,0.068c0,0.197-0.161,0.819-0.483,1.865c-0.059,0.191-0.119,0.383-0.18,0.573
			c-0.385,1.167-0.732,2.346-1.043,3.535c-0.651,2.519-0.978,4.651-0.978,6.396c-0.003,0.424,0.023,0.848,0.079,1.268
			c0.226,1.641,0.943,2.462,2.151,2.462c0.12-0.003,0.239-0.031,0.347-0.084c0.195-0.088,0.408-0.248,0.639-0.478
			c0.094-0.094,0.184-0.191,0.27-0.293c0.394-0.46,0.747-0.952,1.059-1.472c0.091-0.151,0.18-0.306,0.265-0.461
			c0.088-0.172,0.173-0.345,0.254-0.52c0.269-0.572,0.635-1.411,1.103-2.519c0.152-0.363,0.305-0.728,0.456-1.092
			c0.188-0.45,0.351-0.851,0.498-1.213c0.009,0.059,0.017,0.118,0.022,0.178c0.01,0.085,0.021,0.17,0.035,0.251
			c0.081,0.461,0.165,0.922,0.252,1.382c0.259,1.365,0.484,2.36,0.676,2.982c0.052,0.175,0.114,0.347,0.188,0.514
			c0.056,0.121,0.116,0.24,0.182,0.356c0.237,0.413,0.467,0.62,0.688,0.62c0.209,0,0.313-0.24,0.314-0.725c0-0.003,0-0.005,0-0.008
			c0.001-0.299,0.015-0.598,0.04-0.896c0.024-0.288,0.058-0.576,0.099-0.863c0.014-0.093,0.027-0.185,0.042-0.276
			c0.061-0.355,0.113-0.572,0.162-0.649c0.007-0.018,0.021-0.029,0.039-0.033c0.061,0,0.29,0.381,0.688,1.142
			c0.062,0.119,0.124,0.238,0.185,0.357c0.274,0.545,0.586,1.07,0.935,1.571c0.444,0.648,0.974,1.233,1.574,1.739
			c0.29,0.244,0.602,0.461,0.93,0.65c0.374,0.212,0.744,0.359,1.109,0.447c0.245,0.058,0.496,0.087,0.748,0.088
			c0.354,0.003,0.707-0.061,1.038-0.187c0.199-0.077,0.389-0.179,0.563-0.302c0.44-0.302,0.931-0.837,1.465-1.604
			c0.272-0.388,0.521-0.793,0.744-1.212c0.181-0.34,0.339-0.692,0.475-1.053c0.085-0.216,0.164-0.435,0.238-0.655
			c0.248-0.735,0.53-1.714,0.843-2.934c0.28-1.086,0.463-1.879,0.555-2.393c0.008-0.043,0.016-0.085,0.022-0.128
			c0.145,0.12,0.34,0.229,0.606,0.325c0.13,0.042,0.279,0.066,0.451,0.069c0.012,0,0.023,0,0.035,0c0.277,0,0.555-0.017,0.83-0.05
			c0.119-0.015,0.237-0.033,0.355-0.056c0.175-0.021,0.367-0.048,0.584-0.08c0.015-0.002,0.029-0.004,0.044-0.007
			c0.054-0.008,0.108-0.017,0.163-0.024c0.151-0.024,0.271-0.044,0.357-0.063l0.211-0.035v0.836c0,0.428-0.001,0.854-0.005,1.281
			c-0.003,0.334-0.007,0.65-0.012,0.948c-0.005,0.279-0.012,0.559-0.02,0.838c-0.02,0.521-0.032,1.188-0.034,2.004
			c-0.001,0.099-0.001,0.197,0,0.296c-0.001,0.441,0.005,0.883,0.018,1.323c0.038,1.21,0.13,2.109,0.276,2.692
			c0,0.003,0.001,0.006,0.002,0.01c0.053,0.215,0.125,0.425,0.215,0.627c0.2,0.443,0.471,0.763,0.813,0.958
			c0.33,0.146,0.566,0.236,0.708,0.267c0.031,0.008,0.063,0.012,0.094,0.013c0.025,0,0.052-0.002,0.077-0.008
			c0.074-0.016,0.117-0.06,0.129-0.129c0.002-0.013,0.003-0.025,0.003-0.038c0-0.162-0.058-0.358-0.171-0.59
			c-0.001-0.001-0.002-0.002-0.003-0.003c-0.183-0.388-0.31-1.08-0.381-2.074c-0.001-0.017-0.002-0.033-0.004-0.051v-0.731
			c0-0.964,0.047-2.087,0.139-3.372c0.046-0.643,0.099-1.284,0.157-1.926c0.023-0.249,0.048-0.498,0.073-0.746
			c0.17-1.631,0.326-2.521,0.468-2.666c0.001-0.001,0.001-0.001,0.001-0.001c0.091-0.092,0.788-0.26,2.095-0.505
			c0.033-0.006,0.067-0.013,0.101-0.02c0.263-0.047,0.524-0.094,0.787-0.142c0.492-0.09,0.982-0.189,1.47-0.3
			c0.085-0.02,0.169-0.041,0.252-0.063c0.345-0.096,0.528-0.218,0.555-0.365c0.002-0.012,0.003-0.023,0.003-0.036
			c-0.002-0.05-0.015-0.099-0.037-0.143c-0.05-0.093-0.116-0.175-0.194-0.244c-0.037-0.035-0.075-0.069-0.115-0.102
			c-0.112-0.081-0.247-0.128-0.387-0.134c-0.034-0.003-0.068-0.005-0.103-0.005c-0.049,0.001-0.098,0.004-0.146,0.008
			c-0.22,0.018-0.612,0.066-1.174,0.146c-0.13,0.019-0.26,0.037-0.389,0.056c-0.206,0.037-0.411,0.072-0.616,0.107
			c-0.773,0.13-1.266,0.2-1.476,0.207c-0.011,0-0.022,0-0.033,0c-0.045,0-0.089-0.005-0.133-0.015
			c-0.116-0.027-0.187-0.099-0.21-0.213c-0.005-0.028-0.007-0.058-0.007-0.087c0.004-0.154,0.019-0.308,0.046-0.46
			c0.09-0.559,0.315-1.427,0.674-2.605c0.129-0.42,0.26-0.838,0.396-1.255c0.13-0.401,0.263-0.803,0.399-1.202
			c0.425-1.249,0.776-2.155,1.053-2.719c0.065-0.137,0.14-0.271,0.22-0.399c0.234-0.351,1.906-0.674,5.019-0.977
			c0.152-0.018,0.306-0.033,0.46-0.048c0.314-0.03,0.58-0.045,0.81-0.05c-1.011,2.117-1.779,4.342-2.29,6.631
			c-0.325,1.484-0.521,2.995-0.584,4.513c0,0.039,0,0.078-0.001,0.117c-0.002,0.128-0.007,0.293-0.016,0.493
			c-0.011,0.245-0.017,0.428-0.018,0.546c0,0.01,0,0.019,0,0.028c-0.002,0.839,0.038,1.678,0.12,2.513
			c0.15,1.49,0.447,2.773,0.89,3.849c0.138,0.341,0.301,0.67,0.488,0.986c0.476,0.789,1.028,1.26,1.656,1.413
			c0.153,0.037,0.311,0.057,0.469,0.056c0.493-0.017,0.965-0.2,1.34-0.521c1.001-0.778,2.007-2.424,3.018-4.927
			c0.045,0.344,0.121,0.682,0.228,1.012c0.123,0.383,0.304,0.745,0.536,1.073c0.223,0.318,0.508,0.588,0.838,0.793
			c0.387,0.234,0.83,0.359,1.327,0.374c0.033,0.001,0.066,0.001,0.1,0.001c0.563-0.003,1.108-0.189,1.555-0.531
			c0.244-0.18,0.479-0.404,0.708-0.673c0.042-0.051,0.084-0.103,0.125-0.155c0.305-0.396,0.566-0.824,0.779-1.276
			c0.341-0.706,0.62-1.535,0.841-2.486l0.452-1.987l1.291-0.14c0.217-0.025,0.434-0.053,0.649-0.083
			c0.18-0.026,0.35-0.052,0.508-0.08c0.15-0.025,0.299-0.053,0.448-0.083l-0.002,0.071c-0.002,0.023-0.003,0.047-0.003,0.07
			c0,0.343,0.01,0.585,0.035,0.725c0,0.002,0,0.004,0.001,0.007c0.102,0.709,0.282,1.405,0.54,2.074
			c0.062,0.164,0.128,0.326,0.199,0.486c0.138,0.307,0.272,0.548,0.406,0.727c0.053,0.071,0.112,0.138,0.177,0.199
			c0.178,0.147,0.386,0.253,0.609,0.31c0.15,0.039,0.313,0.062,0.487,0.07c0.041,0.001,0.082,0.002,0.124,0.002
			c0.155,0.001,0.311-0.013,0.464-0.04c0.18-0.035,0.341-0.091,0.48-0.17c0.102-0.057,0.194-0.127,0.276-0.208
			c0.073-0.075,0.141-0.154,0.204-0.237c0.212-0.276,0.463-0.684,0.751-1.224c0.007-0.013,0.014-0.024,0.02-0.036l0.592-1.08
			l0.244,1.532c0.208,1.394,0.553,2.653,1.029,3.78c0.105,0.253,0.223,0.5,0.35,0.742c0.25,0.474,0.505,0.831,0.766,1.072
			c0.109,0.104,0.233,0.191,0.367,0.26c0.067,0.041,0.14,0.073,0.215,0.096c0.146,0.044,0.327,0.07,0.542,0.077
			c0.037,0.001,0.075,0.002,0.113,0.001c0.013,0.001,0.025,0.001,0.038,0c0.029-0.002,0.065-0.005,0.107-0.01
			c0.021-0.003,0.041-0.005,0.063-0.008c0.058-0.008,0.115-0.014,0.174-0.018c0.438-0.064,0.852-0.248,1.193-0.529
			c0.646-0.5,1.258-1.347,1.839-2.536c0.354-0.732,0.752-1.713,1.19-2.94c0.021-0.06,0.042-0.119,0.063-0.179
			c0.108-0.308,0.214-0.615,0.315-0.925c0.283-0.864,0.469-1.55,0.557-2.055c0.014-0.069,0.03-0.139,0.049-0.208
			c0.08-0.303,0.168-0.453,0.264-0.453l0.349,0.139c0.347,0.13,0.999,0.198,1.962,0.208c0.078,0,0.156,0,0.234,0
			c0.048,0,0.096,0,0.144,0c0.066,0,0.129-0.003,0.189-0.005c0.009,0,0.017,0,0.025,0c-0.163,0.52-0.284,1.053-0.361,1.592
			c-0.032,0.226-0.055,0.452-0.07,0.679c0.001,0.021,0.001,0.04,0,0.061c-0.003,0.083-0.009,0.166-0.015,0.25
			c-0.001,0.013-0.001,0.025-0.002,0.038c-0.003,0.038-0.006,0.076-0.008,0.114c-0.007,0.11-0.01,0.2-0.01,0.271
			c-0.004,0.485,0.033,0.971,0.111,1.45c0.246,1.434,0.895,2.354,1.945,2.765c0.1,0.042,0.203,0.071,0.31,0.087
			c0.082,0.013,0.165,0.019,0.247,0.019c0.582,0,1.226-0.239,1.936-0.716c0.708-0.477,1.376-1.119,2.002-1.934
			c0.161-0.212,0.313-0.43,0.458-0.653c0.303-0.466,0.632-1.036,0.985-1.709c0.06-0.112,0.118-0.225,0.177-0.338
			c0.322-0.63,0.557-1.124,0.709-1.496c0.046-0.112,0.089-0.227,0.127-0.343c0.149,0.046,0.295,0.097,0.46,0.126
			c0.062,0.012,0.123,0.019,0.186,0.023c0.087,0.005,0.174,0.011,0.261,0.018c0.545,0.04,0.828,0.09,0.853,0.147
			c0.001,0.002,0.001,0.005,0.001,0.008c0,0.051-0.003,0.103-0.008,0.153c-0.016,0.171-0.05,0.417-0.107,0.744
			c-0.019,0.107-0.038,0.215-0.058,0.322c-0.054,0.305-0.094,0.611-0.12,0.92c-0.038,0.459-0.057,0.92-0.055,1.38
			c-0.001,0.502,0.01,1.004,0.032,1.505c0.046,0.962,0.139,1.759,0.277,2.39c0.054,0.251,0.125,0.499,0.213,0.741
			c0.372,1,0.905,1.497,1.602,1.497c0.28-0.001,0.552-0.099,0.77-0.274c0.134-0.105,0.255-0.228,0.358-0.363
			c0.058-0.074,0.112-0.152,0.163-0.231c0.43-0.667,0.939-2.011,1.529-4.03c0.049-0.167,0.097-0.334,0.145-0.501
			c0.102-0.36,0.2-0.721,0.295-1.082c0.266-1.018,0.449-1.84,0.556-2.494l0.01-0.002c0-0.002,0-0.004,0-0.006
			c0.017-0.11,0.033-0.22,0.05-0.33c0.002-0.01,0.003-0.019,0.005-0.028c0.012-0.081,0.024-0.163,0.036-0.245
			c0.152-1.083,0.445-3.404,0.322-4.649c-0.006-0.068-0.015-0.137-0.024-0.204c-0.197-1.343-0.814-0.248-0.816-0.243
			c0.001,0.012,0.002,0.024,0.003,0.036c0.021,0.282,0.148,2.175-0.007,4.068c-0.014,0.174-0.03,0.349-0.05,0.522
			c-0.024,0.121-0.044,0.244-0.059,0.367c-0.003,0.024-0.006,0.049-0.009,0.073c-0.017,0.134-0.036,0.268-0.058,0.4
			c-0.014,0.085-0.028,0.17-0.043,0.255l-0.01,0.057c-0.003,0.019-0.007,0.036-0.011,0.055c-0.052,0.297-0.108,0.593-0.171,0.888
			c-0.109,0.524-0.245,1.101-0.404,1.727c-0.082,0.32-0.167,0.641-0.255,0.96c-0.186,0.667-0.359,1.22-0.522,1.66
			c-0.051,0.138-0.105,0.274-0.163,0.409c-0.272,0.665-0.6,1.307-0.976,1.919c-0.37,0.604-0.628,0.905-0.769,0.905
			c-0.092,0-0.23-0.291-0.417-0.87c-0.028-0.111-0.051-0.225-0.066-0.339c-0.054-0.42-0.078-0.843-0.072-1.266
			c-0.002-1.706,0.22-3.404,0.66-5.052c0.052-0.188,0.102-0.377,0.149-0.565c0.157-0.618,0.235-1.045,0.235-1.282
			c0-0.209-0.07-0.418-0.208-0.627c-0.084-0.165-0.204-0.309-0.351-0.42c-0.049-0.034-0.101-0.063-0.155-0.085
			c-0.185-0.076-0.521-0.136-1.015-0.182c-0.039-0.004-0.079-0.007-0.118-0.01c-0.897-0.089-1.372-0.155-1.425-0.201
			c-0.002-0.002-0.003-0.005-0.004-0.009c0-0.132,0.054-0.408,0.16-0.831c0.027-0.106,0.055-0.213,0.083-0.318
			c0.066-0.262,0.123-0.526,0.17-0.792c0.043-0.239,0.074-0.48,0.093-0.723c0.011-0.134,0.017-0.269,0.017-0.402
			c0-0.148-0.006-0.297-0.021-0.444c-0.016-0.243-0.075-0.481-0.175-0.704c-0.023-0.049-0.052-0.096-0.084-0.14
			c-0.099-0.144-0.229-0.262-0.381-0.348c-0.086-0.047-0.183-0.071-0.28-0.072c-0.086,0.002-0.171,0.021-0.25,0.056
			c-0.176,0.08-0.34,0.187-0.483,0.316c-0.096,0.081-0.188,0.167-0.276,0.256c-0.241,0.26-0.454,0.543-0.636,0.847
			c-0.32,0.544-0.481,1.099-0.481,1.662c0.004,0.432,0.099,0.857,0.277,1.25c0.126,0.286,0.295,0.575,0.508,0.864
			c0.072,0.099,0.147,0.195,0.227,0.29c0.043,0.051,0.094,0.095,0.151,0.13c0.046,0.03,0.093,0.058,0.134,0.093
			c-0.212,0.273-0.475,0.706-0.808,1.347c-0.304,0.594-0.624,1.18-0.961,1.756c-0.938,1.593-1.79,2.668-2.558,3.226
			c-0.131,0.096-0.266,0.188-0.402,0.274c-0.266,0.167-0.499,0.279-0.697,0.34c-0.096,0.03-0.195,0.047-0.296,0.049
			c-0.197,0.001-0.385-0.085-0.513-0.234c-0.042-0.046-0.08-0.097-0.113-0.149c-0.256-0.433-0.403-1.097-0.443-1.992
			c-0.007-0.172-0.01-0.345-0.01-0.517c0-0.109,0.003-0.219,0.008-0.327c0.007-0.105,0.014-0.219,0.023-0.338
			c0.011-0.127,0.023-0.254,0.038-0.38c0.012-0.077,0.025-0.154,0.04-0.23c0.058-0.305,0.12-0.496,0.187-0.571
			c0.028-0.03,0.063-0.056,0.102-0.071c0.088-0.036,0.182-0.057,0.276-0.062c0.055-0.004,0.108-0.006,0.162-0.006
			c0.859,0,1.567-0.384,2.126-1.15c0.461-0.621,0.78-1.2,0.954-1.739c0.103-0.305,0.156-0.623,0.16-0.944
			c0.005-0.286-0.05-0.569-0.16-0.833c-0.154-0.347-0.414-0.637-0.743-0.827c-0.145-0.088-0.297-0.162-0.456-0.222
			c-0.069-0.027-0.14-0.053-0.211-0.076c-0.105-0.037-0.214-0.065-0.324-0.086c-0.041-0.008-0.083-0.012-0.124-0.012
			c-0.351,0-0.861,0.35-1.534,1.045c-0.648,0.678-1.154,1.478-1.489,2.354c-0.056-0.005-0.111-0.01-0.167-0.013
			c-0.047-0.003-0.094-0.005-0.14-0.005c-0.017,0-0.034,0-0.051,0c-0.048-0.001-0.097,0-0.145,0.002
			c-0.092,0.002-0.184,0.013-0.273,0.032c-0.075,0.02-0.186,0.029-0.326,0.032c-0.03,0.001-0.061,0.001-0.091,0.001
			c-0.354,0-0.662-0.04-0.922-0.12C99.082,47.589,99.006,47.559,98.933,47.524L98.933,47.524z M49.665,30.589v0.174
			c0,1.03-0.352,2.329-1.058,3.894c-0.075,0.167-0.152,0.333-0.232,0.498c-0.861,1.793-1.95,3.468-3.24,4.983
			c-0.254,0.31-0.517,0.612-0.786,0.908c-0.54,0.591-1.097,1.165-1.671,1.723c-0.235,0.23-0.473,0.457-0.714,0.683
			c-0.669,0.625-1.203,1.077-1.604,1.355c-0.301,0.232-0.499,0.349-0.591,0.349c-0.04,0-0.063-0.058-0.07-0.174
			c-0.001-0.022-0.001-0.046,0-0.069c0.001-0.088,0.008-0.176,0.02-0.264c0.04-0.307,0.139-0.756,0.297-1.347
			c0.033-0.126,0.067-0.251,0.103-0.377c0.588-2.225,1.425-4.376,2.497-6.413c0.264-0.506,0.54-1.005,0.828-1.497
			c1.521-2.603,2.947-4.286,4.27-5.053c0.136-0.08,0.273-0.156,0.412-0.23c0.456-0.241,0.783-0.362,0.982-0.362
			C49.456,29.369,49.644,29.775,49.665,30.589L49.665,30.589z M68.094,45.887l-0.521,0.523l0.14-0.628
			c0.161-0.681,0.351-1.354,0.566-2.021c0.435-1.354,1.03-2.929,1.783-4.72c0.188-0.449,0.381-0.897,0.577-1.344
			c1.481-3.381,2.42-5.075,2.819-5.089c0.002,0,0.003,0,0.004,0c0.021,0,0.032,0.133,0.034,0.396c0,0.042,0,0.085,0,0.127
			c0.001,0.116,0,0.232-0.001,0.348c-0.004,0.285-0.013,0.53-0.026,0.738c-0.002,0.033-0.004,0.065-0.007,0.098
			c-0.095,1.268-0.354,2.518-0.772,3.719c-0.29,0.84-0.637,1.659-1.04,2.451c-0.258,0.512-0.532,1.016-0.821,1.512
			c-0.31,0.532-0.651,1.085-1.026,1.66c-0.166,0.254-0.336,0.506-0.51,0.756c-0.477,0.685-0.862,1.164-1.156,1.436
			C68.122,45.862,68.108,45.875,68.094,45.887L68.094,45.887z M78.824,47.978c-0.253,0-0.573-0.109-0.957-0.33
			c-0.101-0.058-0.197-0.12-0.291-0.188c-0.222-0.161-0.374-0.324-0.457-0.491c-0.143-0.293-0.215-0.616-0.21-0.942
			c0-0.575,0.127-0.992,0.38-1.25c0.002-0.001,0.004-0.002,0.005-0.004c0.052-0.052,0.105-0.104,0.159-0.153
			c0.216-0.2,0.373-0.301,0.467-0.301c0.039,0.002,0.076,0.012,0.11,0.03c0.093,0.045,0.2,0.145,0.323,0.295
			c0.007,0.009,0.013,0.017,0.02,0.025c0.451,0.509,0.712,1.2,0.782,2.074c0.014,0.167,0.021,0.336,0.02,0.504
			c0.001,0.081-0.003,0.163-0.012,0.244C79.128,47.814,79.017,47.978,78.824,47.978L78.824,47.978z M104.436,46.584l0.558-0.767
			l0.07,0.558v0.07c0,0.557-0.24,1.213-0.717,1.969c-0.476,0.755-0.898,1.131-1.271,1.131c-0.023,0-0.047-0.001-0.07-0.003
			c-0.037-0.002-0.073-0.014-0.104-0.033c-0.022-0.016-0.035-0.041-0.034-0.068c0.002-0.043,0.009-0.087,0.022-0.129
			c0.057-0.205,0.225-0.56,0.504-1.064c0.005-0.009,0.01-0.017,0.015-0.025c0.274-0.498,0.54-0.935,0.795-1.31
			C104.278,46.801,104.355,46.691,104.436,46.584L104.436,46.584z M41.194,50.376c-0.04,0.077-0.063,0.163-0.067,0.25
			c0,0.001,0,0.003,0,0.004c0.002,0.044,0.037,0.065,0.104,0.065c0.162,0,0.513-0.186,1.047-0.557
			c0.445-0.328,0.749-0.641,0.909-0.939c0.085-0.15,0.131-0.318,0.135-0.49c0-0.011-0.001-0.021-0.002-0.032
			c-0.005-0.068-0.03-0.112-0.076-0.13c-0.019-0.008-0.039-0.012-0.06-0.011c-0.21,0-0.49,0.161-0.837,0.486
			c-0.118,0.111-0.233,0.224-0.348,0.339C41.579,49.786,41.311,50.124,41.194,50.376L41.194,50.376z M109.173,46.479h-0.105
			c-0.171-0.077-0.296-0.229-0.341-0.409c-0.027-0.094-0.04-0.2-0.04-0.321c-0.012-0.563,0.234-1.099,0.667-1.457
			c0.107-0.093,0.222-0.176,0.343-0.25c0.017-0.009,0.032-0.017,0.049-0.024c0.039-0.021,0.081-0.037,0.124-0.047
			c0.001,0,0.001,0,0.002,0c0.069,0,0.104,0.081,0.104,0.242c0,0.001,0,0.002,0,0.003c0,0.255-0.081,0.662-0.243,1.22
			c-0.031,0.115-0.064,0.229-0.102,0.341c-0.104,0.321-0.21,0.533-0.313,0.635C109.28,46.451,109.229,46.477,109.173,46.479
			L109.173,46.479z M97.08,44.927c0.003-0.017,0.004-0.033,0.004-0.05c0.004-0.015,0.008-0.029,0.01-0.044
			c0.019-0.103,0.026-0.273,0.026-0.514c0-0.021,0-0.041,0-0.062c0.002-0.139-0.005-0.277-0.02-0.416
			c-0.004-0.027-0.01-0.054-0.017-0.08c-0.002-0.017-0.005-0.033-0.008-0.05c-0.027-0.127-0.088-0.15-0.184-0.069
			c-0.012,0.01-0.023,0.02-0.034,0.03c-0.094,0.095-0.153,0.236-0.177,0.423c-0.01,0.074-0.015,0.148-0.015,0.224
			c0,0.441,0.104,0.674,0.314,0.695C97.036,45.015,97.069,44.986,97.08,44.927L97.08,44.927z"/>
		<path fill="#3BB4CA" d="M19.089,41.025c0.097,0.063,0.201,0.112,0.311,0.146c0.097,0.03,0.198,0.046,0.3,0.046
			c0.082,0.003,0.163-0.015,0.237-0.05c0.028-0.015,0.054-0.034,0.077-0.056c0.214-0.15,0.465-0.521,0.75-1.111
			c0.022-0.048,0.045-0.096,0.066-0.144c0.068-0.145,0.134-0.292,0.195-0.439c0.172-0.416,0.263-0.73,0.274-0.944
			c0.001-0.015,0.002-0.029,0.001-0.044c0-0.294-0.192-0.583-0.577-0.867c-0.011-0.008-0.021-0.015-0.032-0.022
			c-0.406-0.29-0.772-0.435-1.096-0.435c-0.113-0.006-0.226,0.022-0.322,0.081c-0.059,0.041-0.104,0.098-0.13,0.163
			c-0.025,0.092-0.084,0.627-0.177,1.603c0,0.002,0,0.004,0,0.007c-0.018,0.173-0.034,0.352-0.052,0.538
			c-0.006,0.063-0.012,0.124-0.017,0.187c-0.006,0.061-0.012,0.122-0.019,0.183c-0.013,0.134-0.026,0.25-0.04,0.348
			c-0.003,0.026-0.008,0.054-0.012,0.08c-0.005,0.035-0.011,0.07-0.015,0.105c-0.015,0.099-0.021,0.174-0.021,0.226
			c0.001,0.063,0.021,0.126,0.057,0.179c0.045,0.07,0.118,0.141,0.219,0.208C19.075,41.017,19.082,41.021,19.089,41.025z"/>
		<path fill="#3BB4CA" d="M9.386,50.313h0.452c1.269,0.01,2.514-0.341,3.592-1.011c1.013-0.612,1.889-1.426,2.574-2.39
			c0.342-0.475,0.646-0.974,0.909-1.495c0.873-1.686,1.327-3.557,1.325-5.454c0-0.324-0.016-0.649-0.046-0.972
			c-0.017-0.164-0.036-0.328-0.061-0.491c-0.143-1.123-0.437-2.021-0.88-2.696c-0.321-0.505-0.776-0.91-1.314-1.172
			c-0.183-0.097-0.373-0.176-0.57-0.236c-0.102-0.03-0.205-0.055-0.309-0.073c-0.147-0.026-0.296-0.039-0.444-0.039
			c-0.421,0-0.844,0.095-1.265,0.287c-0.044,0.02-0.088,0.04-0.131,0.062c-0.402,0.192-0.927,0.59-1.573,1.191
			c-0.229,0.213-0.453,0.432-0.674,0.654c-0.341,0.345-0.673,0.7-0.993,1.064c-0.502,0.572-0.92,1.111-1.254,1.62
			c-0.976,1.507-2.057,3.596-3.244,6.268c-0.058,0.129-0.115,0.259-0.172,0.388c-0.156,0.385-0.295,0.623-0.411,0.72
			c-0.03,0.027-0.069,0.044-0.11,0.047c-0.017,0-0.032-0.01-0.04-0.025c-0.021-0.044-0.03-0.093-0.029-0.142
			c0-0.014,0-0.028,0-0.042c0-0.037,0.001-0.073,0.002-0.11c0.002-0.068,0.013-0.138,0.031-0.204
			c0.098-0.525,0.21-1.048,0.337-1.566c0.303-1.243,0.725-2.695,1.267-4.356c0.557-1.673,0.866-2.721,0.93-3.145
			c0.007-0.043,0.011-0.087,0.011-0.13c0.001-0.137-0.045-0.269-0.13-0.374c-0.003-0.004-0.006-0.008-0.009-0.012
			c-0.164-0.208-0.437-0.399-0.818-0.574c-0.255-0.121-0.525-0.204-0.805-0.245c-0.074-0.01-0.149-0.016-0.225-0.016
			c-0.232,0-0.383,0.058-0.452,0.174c-0.184,0.229-0.496,0.995-0.94,2.301c-0.006,0.017-0.012,0.034-0.018,0.052
			c-0.454,1.336-0.795,2.514-1.028,3.536c-0.619,2.613-0.964,5.284-1.029,7.97c-0.011,0.398-0.016,0.797-0.016,1.195
			c0,0.155,0.005,0.404,0.016,0.744c0.001,0.013,0.002,0.026,0.002,0.04c0.012,0.359,0.018,0.645,0.018,0.854
			c0.019,1.368,0.082,2.735,0.188,4.1c0.037,0.476,0.078,0.949,0.124,1.424c0.021,0.226,0.045,0.452,0.068,0.678
			c0.125,1.176,0.238,1.938,0.34,2.286c0.017,0.067,0.044,0.131,0.08,0.189c0.06,0.06,0.133,0.104,0.213,0.13
			c0.101,0.032,0.205,0.048,0.311,0.045c0.134,0.005,0.268-0.022,0.39-0.079c0.048-0.025,0.092-0.057,0.13-0.096
			c0.019-0.025,0.03-0.056,0.034-0.087c0.072-0.322,0.107-1.49,0.107-3.502c0-2.22,0.088-3.78,0.261-4.68
			c0.006-0.031,0.012-0.063,0.019-0.094c0.51-2.533,0.894-3.846,1.15-3.939c0.016-0.006,0.032-0.009,0.05-0.01
			c0.12-0.01,0.313,0.088,0.576,0.29c0.615,0.455,1.318,0.779,2.064,0.951C8.433,50.225,8.907,50.291,9.386,50.313L9.386,50.313z
			 M6.042,48.118l-0.453-0.489l0.835-1.987c1.534-3.623,3.288-6.422,5.264-8.397c1.439-1.44,2.577-2.16,3.415-2.16
			c0.119-0.002,0.237,0.018,0.351,0.056c0.146,0.052,0.277,0.141,0.38,0.258c0.156,0.187,0.278,0.398,0.362,0.626
			c0.165,0.425,0.276,0.978,0.33,1.66c0.027,0.364,0.041,0.729,0.04,1.095c0,1.02-0.064,1.844-0.191,2.472
			c-0.006,0.03-0.013,0.06-0.019,0.09c-0.058,0.26-0.128,0.517-0.21,0.77c-0.083,0.258-0.182,0.528-0.295,0.816
			c-0.094,0.234-0.191,0.467-0.294,0.697c-0.973,2.094-2.167,3.617-3.588,4.567c-0.71,0.479-1.503,0.82-2.339,1.008
			c-0.353,0.092-0.715,0.139-1.08,0.138C7.667,49.336,6.83,48.93,6.042,48.118L6.042,48.118z"/>
	</g>
	<g>
		<path fill="#F6D283" d="M107.355,29.888c8.274,0,14.981-6.708,14.981-14.982s-6.708-14.983-14.981-14.983
			c-8.276,0-14.982,6.71-14.982,14.983S99.08,29.888,107.355,29.888C107.354,29.888,107.354,29.888,107.355,29.888z"/>
		<g>
			<path fill="#3BB4CA" d="M107.882,37.763c-0.103,0.037-0.187,0.115-0.23,0.216c-0.023,0.052-0.035,0.106-0.035,0.162
				c0,0.052,0.01,0.104,0.03,0.154c0.198,0.493,0.449,0.963,0.749,1.402c1.405,2.04,3.469,2.515,5.081,2.515
				c0.207,0,0.415-0.008,0.622-0.023c0.611-0.04,1.217-0.151,1.804-0.33c0.113-0.037,0.203-0.123,0.246-0.234
				c0.02-0.047,0.029-0.098,0.029-0.148c0-0.066-0.018-0.132-0.05-0.189c-2.838-5.303-7.952-3.625-8.234-3.527
				C107.89,37.76,107.885,37.762,107.882,37.763L107.882,37.763z M115.162,41.219c-0.003-0.005-0.007-0.011-0.01-0.016
				c-2.135-3.46-5.406-3.074-6.575-2.799c0.176,0.365,0.388,0.712,0.633,1.034c1.774,2.315,4.575,2.06,5.815,1.811
				C115.071,41.239,115.116,41.229,115.162,41.219L115.162,41.219z"/>
			<path fill="#3BB4CA" d="M99.116,31.906C99.116,31.905,99.116,31.905,99.116,31.906c-0.001-0.002-0.001-0.002-0.002-0.002
				c0-0.001,0-0.001,0-0.001c-0.001-0.001-0.001-0.002-0.002-0.003c-0.001,0-0.001-0.001-0.002-0.002
				c-0.512-0.56-1.581-1.729-0.273-6.279c0.001-0.004,0.002-0.007,0.003-0.011c0.243-0.84,0.525-1.539,0.824-2.119
				c0.154-0.302,0.327-0.593,0.519-0.872c-0.149,0.03-0.298,0.059-0.447,0.086c-4.357,0.773-7.376-0.55-8.372-1.78
				c-0.082-0.1-0.153-0.207-0.215-0.32c-0.002-0.003-0.004-0.006-0.005-0.009c-0.184-0.351-0.2-0.696-0.059-0.97
				c0.066-0.128,0.163-0.237,0.28-0.32c0.108-0.083,0.218-0.163,0.328-0.243c2.174-1.553,4.348-2.101,6.132-2.183
				c-3.584-2.488-4.413-6.867-4.27-8.95c0.008-0.133,0.022-0.266,0.042-0.396c0.134-0.858,0.468-1.061,0.752-1.061
				c0.017,0,0.034,0.001,0.052,0.003c0.187,0.028,0.372,0.06,0.557,0.094c3.87,0.718,6.326,2.567,7.835,4.417
				c0.07,0.086,0.138,0.172,0.205,0.259c-0.158-1.668-0.021-3.27,0.386-4.71c0.546-2.151,1.899-4.008,3.78-5.186
				c0.044-0.025,0.09-0.045,0.139-0.06c0.279-0.086,0.697-0.005,1.277,0.634c0.061,0.066,0.119,0.135,0.175,0.204
				c1.2,1.485,2.582,4.852,1.925,8.715c0.494-0.6,1.039-1.154,1.63-1.659c0.546-0.473,1.159-0.861,1.82-1.151
				c0.19-0.08,0.382-0.153,0.575-0.223c3.063-1.086,5.227-0.279,5.62-0.109c0.021,0.009,0.04,0.018,0.061,0.027
				c0.329,0.121,0.404,0.69,0.388,1.259c-0.004,0.136-0.013,0.271-0.025,0.404c-0.101,1.083-0.665,3.851-3.692,6.044
				c-0.368,0.267-0.751,0.512-1.147,0.733c0.771,0.013,1.541,0.09,2.3,0.229c1.206,0.225,2.46,0.629,3.698,1.293
				c0.545,0.293,1.067,0.625,1.564,0.994c0.014,0.012,0.027,0.023,0.04,0.036c0.006,0.007,0.013,0.014,0.02,0.021
				c0.01,0.011,0.019,0.021,0.027,0.032c0.134,0.173,0.33,0.581-0.104,1.239c-0.841,1.28-4.013,3.227-8.981,2.866
				c-0.424-0.031-0.847-0.077-1.268-0.138c0.71,0.647,1.42,1.5,2.021,2.602c0.323,0.594,0.595,1.215,0.812,1.855l0.11,0.325
				c0.087,0.256,0.172,0.513,0.254,0.771c0.335,1.06,0.525,2.007,0.043,2.56c-0.268,0.306-1.03,0.42-1.922,0.32
				c-0.281-0.031-0.561-0.081-0.835-0.149c-0.211-0.052-0.418-0.112-0.623-0.183c-1.668-0.572-4.016-2.036-5.46-5.78
				c-0.259-0.677-0.474-1.37-0.643-2.074c-0.005-0.025-0.01-0.051-0.014-0.076c-0.098-0.641,0.267-1.119,0.633-1.578
				c0.011-0.014,0.021-0.027,0.032-0.041c0.333-0.416,0.698-0.874,0.872-1.538c0.057-0.223,0.09-0.451,0.098-0.681
				c0-0.917-0.634-1.575-1.257-1.907c-0.072-0.039-0.147-0.074-0.224-0.106c-0.279-0.119-0.58-0.183-0.884-0.186
				c-0.449-0.009-0.882,0.164-1.2,0.479c-0.152,0.152-0.288,0.318-0.406,0.497c-0.296,0.448-0.458,0.945-0.458,1.41
				c0,0.153,0.019,0.306,0.056,0.454c0.008,0.03,0.017,0.06,0.025,0.089c0.124,0.422,0.456,0.751,0.88,0.87
				c0.12,0.036,0.242,0.064,0.365,0.085c0.27,0.044,0.52,0.044,0.745,0c0.19-0.036,0.372-0.112,0.53-0.225
				c0.219-0.161,0.378-0.389,0.453-0.648c0.049-0.161,0.076-0.328,0.08-0.497c0.001-0.021,0.002-0.043,0.002-0.064
				c0-0.567-0.252-0.915-0.504-1.061c-0.013-0.007-0.025-0.015-0.038-0.021c-0.005-0.003-0.01-0.006-0.015-0.009
				c-0.083-0.04-0.175-0.062-0.267-0.063c-0.105-0.001-0.208,0.031-0.294,0.092l0.017,0.021c0.022,0.025,0.044,0.051,0.065,0.076
				c0.216,0.263,0.507,0.702,0.319,1.473c-0.02,0.08-0.043,0.159-0.07,0.238c-0.056,0.163-0.209,0.273-0.382,0.273
				c-0.021,0-0.044-0.002-0.065-0.006c-0.022-0.004-0.045-0.01-0.066-0.017c-0.163-0.057-0.272-0.21-0.271-0.383
				c0-0.021,0.002-0.043,0.005-0.064c0.003-0.022,0.009-0.044,0.016-0.065c0.199-0.575,0.021-0.784-0.166-1.005
				c-0.12-0.142-0.268-0.315-0.266-0.562c0-0.019,0-0.038,0.002-0.057c0.023-0.257,0.212-0.432,0.307-0.511
				c0.01-0.008,0.021-0.016,0.03-0.024c0.232-0.186,0.522-0.286,0.82-0.285c0.216,0,0.436,0.051,0.644,0.154
				c0.612,0.308,0.987,0.993,0.987,1.806c0,0.029,0,0.06-0.001,0.09c-0.006,0.185-0.03,0.369-0.073,0.549
				c-0.108,0.49-0.39,0.925-0.794,1.223c-0.16,0.115-0.337,0.208-0.523,0.273c-0.365,0.13-0.782,0.169-1.228,0.113
				c-0.2-0.025-0.397-0.067-0.591-0.124c-0.729-0.209-1.288-0.797-1.46-1.535c-0.056-0.217-0.083-0.439-0.082-0.663
				c0-0.86,0.392-1.76,1.101-2.467c0.661-0.66,1.636-0.876,2.61-0.596c0.12,0.035,0.239,0.076,0.354,0.124
				c0.212,0.088,0.415,0.196,0.605,0.323c0.84,0.536,1.356,1.457,1.375,2.453c-0.056,1.338-0.687,2.128-1.148,2.706
				c-0.057,0.071-0.112,0.143-0.168,0.215c-0.255,0.332-0.378,0.549-0.326,0.8c0.111,0.462,0.242,0.918,0.393,1.368
				c0.987,2.938,2.537,4.498,3.94,5.323c0.3,0.176,0.611,0.329,0.934,0.459c0.181,0.073,0.365,0.138,0.552,0.194
				c1.25,0.378,2.158,0.228,2.297,0.14c0.013-0.016,0.024-0.032,0.033-0.05c0.187-0.381-0.234-1.626-0.518-2.463l-0.109-0.326
				c-0.806-2.365-2.104-3.804-3.236-4.642c-0.205-0.151-0.418-0.293-0.638-0.424c-0.107-0.025-0.215-0.053-0.322-0.08
				c-0.483-0.124-0.964-0.265-1.438-0.422c-0.031-0.01-0.061-0.023-0.088-0.041c-0.292-0.182-0.301-0.403-0.28-0.519
				c0.002-0.012,0.004-0.023,0.007-0.035c0.001-0.002,0.001-0.004,0.002-0.005c0.05-0.167,0.19-0.29,0.362-0.317
				c0.039-0.008,0.078-0.013,0.118-0.014c0.343-0.019,1.063,0.179,1.928,0.672c5.04,1.182,8.6-0.055,10.222-1.218
				c0.116-0.083,0.229-0.171,0.337-0.264c0.047-0.04,0.093-0.081,0.138-0.123c0.411-0.386,0.517-0.655,0.528-0.749
				c-0.177-0.129-0.356-0.253-0.54-0.372c-2.513-1.643-5.117-2.024-7.239-1.937c-0.388,0.016-0.773,0.048-1.157,0.095
				c-0.58,0.221-1.21,0.42-1.894,0.596c-0.56,0.143-1.125,0.264-1.693,0.362c-0.024,0.005-0.05,0.007-0.074,0.007
				c-0.045,0-0.09-0.007-0.133-0.02c-0.111-0.029-0.205-0.104-0.261-0.204c-0.026-0.054-0.04-0.113-0.04-0.174
				c0-0.122,0.055-0.245,0.15-0.325c0.01-0.008,0.02-0.015,0.03-0.021c0.236-0.158,1.275-0.582,2.782-0.86
				c0.293-0.054,0.588-0.1,0.884-0.137c0.081-0.031,0.162-0.063,0.243-0.097c2.4-0.972,3.83-2.29,4.683-3.506
				c0.183-0.26,0.35-0.531,0.499-0.812c0.006-0.011,0.012-0.021,0.017-0.032c0.847-1.611,0.849-3.031,0.761-3.428
				c-0.48-0.179-2.139-0.67-4.431-0.01c-0.358,0.104-0.711,0.229-1.055,0.373c-1.461,0.61-2.807,2.044-3.853,3.478
				c-0.154,0.211-0.305,0.426-0.45,0.643c-0.085,0.235-0.177,0.468-0.275,0.697c-0.362,0.84-0.834,1.689-1.438,2.533
				c-0.007,0.009-0.014,0.018-0.021,0.025c-0.178,0.216-0.375,0.192-0.46,0.17c-0.003-0.001-0.007-0.002-0.01-0.004
				c-0.165-0.053-0.28-0.202-0.29-0.376c0-0.002,0-0.004,0-0.007c0-0.211,0.383-1.104,1.039-2.23c0.235-0.403,0.482-0.8,0.743-1.188
				c0.055-0.155,0.105-0.313,0.153-0.47c1.03-3.377,0.163-6.238-0.378-7.532c-0.007-0.018-0.015-0.034-0.021-0.052
				c-0.544-1.282-1.152-2.012-1.49-2.278c-0.052-0.043-0.11-0.079-0.173-0.105c-1.389,0.874-2.454,2.178-3.035,3.713
				c-0.563,1.404-0.815,3.03-0.729,4.754c0.041,0.808,0.15,1.61,0.327,2.398c0.5,0.966,0.75,1.799,0.836,2.294
				c0.02,0.102,0.03,0.205,0.034,0.31c0,0.004,0,0.009,0,0.013c0,0.393-0.287,0.467-0.346,0.479
				c-0.121,0.022-0.332,0.015-0.478-0.265c-0.018-0.034-0.033-0.069-0.047-0.105c-0.103-0.26-0.2-0.521-0.291-0.785
				c-0.177-0.515-0.327-1.038-0.452-1.568c-1.083-2.137-3.532-5.149-8.862-6.012c-0.192,0.46-0.259,2.214,0.44,4.255
				c0.419,1.219,1.308,3.058,3.108,4.439c0.484,0.371,1.008,0.689,1.561,0.949c0.085,0.011,0.17,0.022,0.255,0.035
				c0.909,0.142,1.578,0.386,1.894,0.578c0.042,0.025,0.082,0.054,0.12,0.084c0.164,0.141,0.194,0.309,0.165,0.441
				c-0.009,0.038-0.021,0.074-0.04,0.108c-0.166,0.313-0.538,0.23-0.746,0.175c-0.013-0.004-0.025-0.007-0.038-0.011
				c-0.209-0.05-0.416-0.105-0.622-0.168c-0.428-0.128-0.848-0.285-1.255-0.469c-0.101-0.011-0.201-0.021-0.302-0.028
				c-1.815-0.14-4.462,0.197-7.17,2.262c-0.03,0.02-0.086,0.061-0.004,0.231c0.006,0.014,0.013,0.026,0.02,0.039
				c0.577,1.089,3.978,2.819,9.245,1.347c0.033-0.029,0.067-0.059,0.102-0.087c0.62-0.502,1.168-0.648,1.468-0.643
				c0.017,0.001,0.034,0.002,0.052,0.003c0.299,0.028,0.444,0.213,0.481,0.381c0.003,0.013,0.005,0.024,0.007,0.037
				c0.019,0.141-0.012,0.361-0.317,0.55c-0.031,0.02-0.063,0.037-0.097,0.054c-0.054,0.02-0.107,0.038-0.161,0.058
				c-0.364,0.13-0.732,0.249-1.104,0.357c-0.035,0.032-0.069,0.066-0.104,0.101c-0.492,0.495-1.052,1.293-1.522,2.551
				c-0.111,0.3-0.212,0.604-0.3,0.911c-0.059,0.204-0.114,0.408-0.167,0.613c-0.923,3.602-0.1,4.502,0.262,4.898
				c0.028,0.03,0.056,0.06,0.08,0.088c0.015,0.018,0.029,0.035,0.043,0.053c0.064-0.004,0.128-0.013,0.19-0.025
				c0.429-0.081,1.276-0.373,2.203-1.116c0.072-0.058,0.144-0.117,0.214-0.179c0.892-0.774,1.863-2.003,2.465-3.916
				c0.185-0.593,0.323-1.199,0.414-1.813c-0.005-0.106-0.01-0.212-0.012-0.318c-0.023-0.906,0.062-1.561,0.146-1.759
				c0.002-0.003,0.003-0.006,0.004-0.01c0.073-0.148,0.221-0.246,0.387-0.257h0.014c0.022,0,0.045,0.002,0.067,0.006
				c0.3,0.059,0.347,0.347,0.359,0.504c0.001,0.017,0.002,0.033,0.002,0.05c-0.006,0.188-0.016,0.378-0.027,0.566
				c-0.027,0.393-0.068,0.784-0.123,1.173c0.105,1.977,0.744,5.177,3.258,7.182l0.44,0.352c0.188,0.149,0.374,0.298,0.561,0.447
				c0.72,0.575,1.399,1.129,2.035,1.689c0.931,0.797,1.775,1.688,2.522,2.66c-0.293-1.109-0.642-3.733,2.11-5.109
				c0.055-0.028,0.116-0.043,0.178-0.043h0.012c0.043,0.001,0.085,0.01,0.124,0.023c0.104,0.037,0.187,0.113,0.232,0.212
				c0.016,0.032,1.327,3.002-1.28,5.172c-0.197,0.162-0.404,0.313-0.62,0.449c-0.063,0.043-0.139,0.065-0.216,0.065l-0.008-0.002
				c0.442,0.698,0.809,1.442,1.092,2.22c0.28,0.764,0.498,1.603,0.648,2.535c0.127,0.814,0.201,1.636,0.223,2.46
				c0,0.004,0,0.007,0,0.011c0.001,0.22-0.173,0.399-0.392,0.406h-0.013c-0.218,0-0.397-0.174-0.404-0.392
				c-0.012-0.396-0.035-0.793-0.07-1.188c-0.504-5.63-3.369-7.907-7.236-10.985l-0.442-0.353c-0.479-0.383-0.914-0.816-1.297-1.295
				c-1.065-1.326-1.66-2.872-1.976-4.285c-0.016,0.047-0.031,0.094-0.048,0.14c-1.245,3.599-3.795,5.142-5.297,5.471
				c-0.005,0-0.009,0.001-0.013,0.002c-0.181,0.04-0.613,0.128-0.884-0.05c-0.069-0.046-0.126-0.109-0.163-0.185
				c-0.015-0.022-0.043-0.05-0.075-0.086 M115.703,36.451c0.103-0.08,0.2-0.164,0.295-0.252c1.408-1.316,1.219-2.886,1.019-3.626
				c-0.145,0.093-0.281,0.195-0.411,0.308C115.292,34.022,115.494,35.646,115.703,36.451z M99.117,31.907l0.003,0.003
				 M99.123,31.913C99.123,31.912,99.123,31.912,99.123,31.913c-0.001-0.002-0.001-0.002-0.001-0.002
				c0-0.001-0.001-0.001-0.002-0.001L99.123,31.913z M99.134,31.923c-0.001,0-0.002-0.001-0.002-0.001L99.134,31.923z
				 M99.123,31.913l0.002,0.002L99.123,31.913z M99.127,31.918c0.001,0,0.001,0,0.002,0C99.128,31.918,99.127,31.917,99.127,31.918
				L99.127,31.918z M99.119,31.909C99.119,31.908,99.119,31.908,99.119,31.909"/>
		</g>
	</g>
</g>
</svg>
