<svg xmlns="http://www.w3.org/2000/svg" width="117.576" height="54.463" viewBox="37.304 561.558 117.576 54.463"><g data-name="Group 19"><g data-name="Group 17"><path d="m100.537 576.693.001.001a.245.245 0 0 0 .012.004 2.253 2.253 0 0 0 .012.004.107.107 0 0 0-.02-.007 1.585 1.585 0 0 0-.005-.002Z" fill="#1eb9be" fill-rule="evenodd" data-name="Path 675"/><path d="m100.132 576.084-.017.013a.604.604 0 0 0-.115.134.513.513 0 0 0-.066.26.545.545 0 0 0 0 .003.741.741 0 0 0 .7.702.707.707 0 0 0 .052.002c.325 0 .655-.22.74-.54a.708.708 0 0 0-.447-.832.555.555 0 0 0-.224-.03.73.73 0 0 0-.336.106c-.026.017-.05.037-.072.057a1.023 1.023 0 0 1-.036.03.698.698 0 0 0-.163.082.278.278 0 0 0 .004-.002.303.303 0 0 0 .004-.004 5.848 5.848 0 0 0-.007.006 10 10 0 0 0-.017.013Zm.612.213h.002-.014a.1.1 0 0 0 .005 0l.022-.001h.007a.197.197 0 0 1 .01 0 .507.507 0 0 1 .01 0 .236.236 0 0 1 .01.003.387.387 0 0 0 .01.003.466.466 0 0 1 .038.022.6.6 0 0 1 .034.036c.011.018.021.036.03.055a.615.615 0 0 1 .018.07.37.37 0 0 1 0 .041.418.418 0 0 1-.01.035.444.444 0 0 1-.027.045.502.502 0 0 1-.046.044.568.568 0 0 1-.08.045 1.89 1.89 0 0 1-.02.006.6.6 0 0 1-.063.016h-.017a.303.303 0 0 1-.007 0 .589.589 0 0 1-.046-.002 12.618 12.618 0 0 1-.003 0l-.02-.005a.147.147 0 0 1-.02-.006.583.583 0 0 0-.005-.002.01.01 0 0 1-.003 0 .091.091 0 0 1-.02-.007l-.014-.005.012.003a.334.334 0 0 1-.03-.015l-.02-.014a.445.445 0 0 0-.006-.004.892.892 0 0 1-.07-.07l-.01-.015a.245.245 0 0 1-.008-.016.621.621 0 0 1 .008-.006c.012-.008.023-.016.034-.028a1.843 1.843 0 0 1 .059-.063 1.202 1.202 0 0 1 .108-.094.711.711 0 0 1 .109-.061.21.21 0 0 0 .01-.003.185.185 0 0 1 .023-.007Zm-.023.007.004-.002" fill="#1eb9be" fill-rule="evenodd" data-name="Path 674"/><path d="M100.764 576.295h-.005a.063.063 0 0 0-.01.002.082.082 0 0 0-.003 0c.029 0 .03-.002.02-.002a.087.087 0 0 0-.002 0Z" fill="#1eb9be" fill-rule="evenodd" data-name="Path 673"/><path d="M98.234 579.152a.875.875 0 0 0-.093-.005h-.039a.956.956 0 0 0-.52.183c-.288.213-.412.552-.393.89a1.245 1.245 0 0 0 .092.405 1.106 1.106 0 0 0 .96.654h.026a.915.915 0 0 0 .057-.002 1.004 1.004 0 0 0 .92-.768.891.891 0 0 0 .015-.167.929.929 0 0 0-.189-.55 1.555 1.555 0 0 0-.257-.279.782.782 0 0 0-.58-.361Zm.063.65a.128.128 0 0 1-.001 0 1.883 1.883 0 0 1-.051-.005.827.827 0 0 0-.054-.003l-.071-.001a.944.944 0 0 1-.024.005.57.57 0 0 0-.039.009l-.02.006h-.002l-.026.012c-.018.009-.035.02-.053.03a.945.945 0 0 1-.068.065.595.595 0 0 1-.008.006l-.01.016a.534.534 0 0 0-.026.046.03.03 0 0 0-.001.001l-.014.035-.002.005a.379.379 0 0 1-.002.005c-.006.018-.021.062-.022.084l-.001.009a.959.959 0 0 0-.002.027 1.04 1.04 0 0 0-.001.026.295.295 0 0 0 0 .013v.044a.327.327 0 0 1 0 .007v.008a.864.864 0 0 0 .024.105l.004.015.005.012.009.02a.875.875 0 0 0 .036.064 4.64 4.64 0 0 0 .016.026l.004.002a.962.962 0 0 1 .017.019.641.641 0 0 0 .025.028.51.51 0 0 0 .02.019 2.633 2.633 0 0 1 .01.01 1.037 1.037 0 0 0 .002.001.849.849 0 0 0 .03.026l-.03-.023a.02.02 0 0 0 .002.004c.011.017.05.035.073.047m.642-.555a.452.452 0 0 1-.01-.017.058.058 0 0 1 0-.002.608.608 0 0 0-.062-.072 1.042 1.042 0 0 0-.012-.012 1.02 1.02 0 0 0-.062-.057 4.819 4.819 0 0 1-.013-.011.377.377 0 0 1-.02-.01.358.358 0 0 1-.068-.041c.054.042-.019-.007-.03-.014l-.008-.005a.147.147 0 0 0-.01-.005.361.361 0 0 0-.049-.014 4.874 4.874 0 0 0-.023-.005m-.204.86a.407.407 0 0 1-.001-.002c-.034-.02.028.01.043.016a.05.05 0 0 0 .001 0 1.28 1.28 0 0 1 .014.004.619.619 0 0 0 .026.008.653.653 0 0 0 .049.011l.012.003c.025.008.07.002.092.002l.02-.001.03-.007a.37.37 0 0 0 .002 0 .416.416 0 0 1 .003 0 2.877 2.877 0 0 1 .008-.002m.272-.224.007-.016.011-.028c.01-.03.02-.063.027-.094l.005-.02.003-.028v-.05a.358.358 0 0 1 0-.008v-.007l-.002-.007c-.005-.015-.007-.032-.011-.048a.245.245 0 0 0-.001-.002 27.38 27.38 0 0 0-.002-.007m-.167.474.002-.003a.761.761 0 0 1 .01-.008.387.387 0 0 0 .02-.017.49.49 0 0 0 .024-.024.67.67 0 0 1 .018-.018l.002-.001a.144.144 0 0 0 .01-.013c.015-.02.029-.047.04-.067m-.262.214a.43.43 0 0 0 .02-.004.204.204 0 0 0 .02-.006l.008-.004a3.194 3.194 0 0 0 .077-.043 2.12 2.12 0 0 0 .009-.005m-.503-.005a.19.19 0 0 1 .006.003.837.837 0 0 0 .033.019 16.15 16.15 0 0 0 .004.002l.03.017m.594-.524a1.038 1.038 0 0 1-.004-.011.608.608 0 0 1 .003 0 .602.602 0 0 0-.02-.044.029.029 0 0 0-.001-.001l-.005-.009a7.477 7.477 0 0 0 0-.001m-.865.295.008.021a.01.01 0 0 1-.002-.003.077.077 0 0 1-.006-.017.33.33 0 0 1 0-.001Zm.89-.243c-.006-.015-.006-.012-.003-.003m0 0a.428.428 0 0 0 .001.006.428.428 0 0 1-.001-.006Zm.01.033.002.004m-.112.414-.001.001m-.31-.78.004.002m.415.35a11.892 11.892 0 0 1 0 .002" fill="#1eb9be" fill-rule="evenodd" data-name="Path 672"/><path d="M81.324 589.422a1.815 1.815 0 0 0-.568-.402c-.283-.125-.598-.164-.877-.03a1.047 1.047 0 0 0-.547.793c-.041.222-.035.457.007.667a1.724 1.724 0 0 0 .004.022 1.601 1.601 0 0 0 .016.068c.125.484.487.968.978 1.117a1.092 1.092 0 0 0 .048.013c.431.11.97-.145 1.204-.51a1.169 1.169 0 0 0 .173-.633c0-.394-.163-.803-.415-1.081a1.365 1.365 0 0 0-.023-.024Zm-1.336.147c.03-.038.042-.054.093-.086a.762.762 0 0 1 .006-.004.258.258 0 0 1 .077-.03.563.563 0 0 1 .24.009c.043.01.105.033.163.059a1.416 1.416 0 0 1 .072.034.181.181 0 0 1 .001 0l.06.034a.97.97 0 0 1 .48.62c.024.091.038.185.038.278a.762.762 0 0 1-.298.632 2.626 2.626 0 0 1-.022.016.558.558 0 0 1-.156.084 1.851 1.851 0 0 1-.027.01.423.423 0 0 1-.261.006.4.4 0 0 1-.01-.003.942.942 0 0 1-.597-.71 1.3 1.3 0 0 1-.03-.419 1.846 1.846 0 0 1 .018-.138c.015-.086.036-.163.069-.243a1.157 1.157 0 0 1 .02-.048.45.45 0 0 1 .038-.067.174.174 0 0 1 .007-.009" fill="#1eb9be" fill-rule="evenodd" data-name="Path 671"/><path d="M86.903 576.262a1.023 1.023 0 0 0 .03-.162.997.997 0 0 0 .006-.105c0-.925-1.314-1.48-1.933-.796a1.003 1.003 0 0 0-.111.148 1.292 1.292 0 0 0-.186.62c-.007.207.038.414.148.588.493.777 1.81.57 2.046-.293Zm-.689-.81a.405.405 0 0 0-.195-.091.52.52 0 0 0-.068-.009.563.563 0 0 0-.535.315.423.423 0 0 0-.015.034.504.504 0 0 0-.02.07c-.062.279.127.557.422.507a.48.48 0 0 0 .072-.018.663.663 0 0 0 .326-.268.57.57 0 0 0 .11-.311.38.38 0 0 0 0-.014.348.348 0 0 0-.003-.038.29.29 0 0 0-.094-.176Z" fill="#1eb9be" fill-rule="evenodd" data-name="Path 670"/><path d="M67.962 567.107c.399-.103.78-.429.864-.845a1.008 1.008 0 0 0 .02-.201c0-.861-1.119-1.509-1.832-.909-.79.665-.14 2.167.883 1.97a1.047 1.047 0 0 0 .065-.015Zm-.074-1.337a.576.576 0 0 0-.248-.051.832.832 0 0 0-.173.019.557.557 0 0 0-.305.157.298.298 0 0 0-.064.294.449.449 0 0 0 .064.13.563.563 0 0 0 .457.231.53.53 0 0 0 .19-.034.628.628 0 0 0 .016-.007.412.412 0 0 0 .017-.008.495.495 0 0 0 .16-.12c.166-.188.16-.48-.114-.61Z" fill="#1eb9be" fill-rule="evenodd" data-name="Path 669"/><path d="M61.161 571.327c.614.118 1.374-.06 1.767-.577.285-.376.289-.985.072-1.407a1.12 1.12 0 0 0-.074-.124c-.404-.586-1.287-.744-1.937-.527a1.608 1.608 0 0 0-.056.02c-.536.201-1.126.694-1.126 1.314a.978.978 0 0 0 0 .047 1.262 1.262 0 0 0 .689 1.003c.209.123.442.207.665.25Zm-.661-1.075c.012.022.033.05.061.081a1.225 1.225 0 0 0 .042.045 1.292 1.292 0 0 0 .152.131c.05.037.105.072.166.106a2.601 2.601 0 0 0 .054.03c.463.25 1.122.275 1.503-.16a.484.484 0 0 0 .036-.046.503.503 0 0 0 .073-.168.474.474 0 0 0 .011-.08 2.44 2.44 0 0 0 .002-.028.655.655 0 0 0-.019-.209 2.696 2.696 0 0 0-.008-.034c-.174-.726-1.224-.916-1.749-.462a.124.124 0 0 1-.004.004l-.061.048c-.024.02-.047.04-.07.062a1.98 1.98 0 0 0-.045.044.934.934 0 0 0-.093.105.894.894 0 0 0-.015.022c-.075.11-.12.232-.106.329.012.078.024.097.055.152m.008.014a16.283 16.283 0 0 1-.001 0" fill="#1eb9be" fill-rule="evenodd" data-name="Path 668"/><path d="M74.44 572.995c-.963-.161-2.095-.256-3.03-.654a27.455 27.455 0 0 1-4.274 1.602 24.703 24.703 0 0 1-6.69.918c-.234 0-.469-.003-.704-.01a25.315 25.315 0 0 1-1.432-.08c4.371 2.237 8.87 4.213 13.493 5.868a5.513 5.513 0 0 1 .528-.738 7.777 7.777 0 0 1 4.433-2.365c.918-.195 1.854-.294 2.789-.377a63.675 63.675 0 0 0 .292-.027c.757-.071 1.532-.142 2.278.027a2.344 2.344 0 0 1 .063.016c.524.134 1.4.539 1.417 1.153a.605.605 0 0 1 0 .017c0 .64-1.023.941-1.603 1.088a29.304 29.304 0 0 1-.16.04c-1.123.279-2.283.383-3.44.487a45.423 45.423 0 0 0-1.705.175 59.015 59.015 0 0 1-.455.057l-.276.033a11.806 11.806 0 0 0-1.819.333 9.393 9.393 0 0 0-1.264.456 101.297 101.297 0 0 0 4.296 1.383 95.616 95.616 0 0 0 2.772.774c1.671-.31 3.346-.685 4.976-1.189a27.634 27.634 0 0 0 3.306-2.705l1.002-.99a116.58 116.58 0 0 1 2.265-2.2 15.21 15.21 0 0 1 2.972-2.255c.575-.32 1.182-.579 1.806-.79.261-.087.56-.176.85-.176a1.065 1.065 0 0 1 .485.106 1.215 1.215 0 0 1 .103.059c.85.538-.05 1.615-.5 2.11-.903.995-1.807 1.954-2.858 2.802a26.647 26.647 0 0 1-7.905 4.403 25.897 25.897 0 0 1 4.15-.335 25.936 25.936 0 0 1 .475.004c.943.017 1.88.09 2.819.181a18.986 18.986 0 0 0 .126.012c.308.028.653.056.976.135a1.693 1.693 0 0 1 .822.423c.466.474.3 1.19-.234 1.525-.539.34-1.29.437-1.95.423a5.858 5.858 0 0 1-.358-.02 17.42 17.42 0 0 1-2.206-.376 50.364 50.364 0 0 0-.824-.174 1403.094 1403.094 0 0 1-.55-.109 314.98 314.98 0 0 1-2.402-.484 19.003 19.003 0 0 0-2.627-.4 5.518 5.518 0 0 0-.356-.012c-.37 0-.733.033-1.097.067a20.059 20.059 0 0 1-2.052.276 86.361 86.361 0 0 0 9.415 1.82 82.71 82.71 0 0 0 5.526.551.454.454 0 0 1 .01-.013 1.56 1.56 0 0 0 .01-.013c.004-.014.004-.028.016-.042a3.11 3.11 0 0 1 .04-.04 3.11 3.11 0 0 0 .038-.039 4.618 4.618 0 0 1 .52-.53 91.563 91.563 0 0 1 6.11-5.744 38.257 38.257 0 0 1 .3-.254c1.576-1.317 3.442-2.635 5.516-2.88a1.509 1.509 0 0 1 .043-.005c.744-.067 1.16.464 1.045 1.123a1.463 1.463 0 0 1-.068.253 2.576 2.576 0 0 1-.148.327c-.311.582-.845 1.11-1.352 1.552a19.74 19.74 0 0 1-.36.305 22.457 22.457 0 0 1-5.255 3.003 293.937 293.937 0 0 1-.358.161 35.699 35.699 0 0 0-3.031 1.489 14.305 14.305 0 0 0-1.576 1.09l-.017.013a51.34 51.34 0 0 1-.41.31 9.544 9.544 0 0 1 .104.006h.013a6.93 6.93 0 0 0 .116.008 76.462 76.462 0 0 0 3.48.095c.957.004 1.914-.04 2.87.008a531.202 531.202 0 0 1 7.467-2.464 117.488 117.488 0 0 0 .242-.078c1.117-.361 2.234-.738 3.368-1.04a12.076 12.076 0 0 1 1.742-.343 920.45 920.45 0 0 0 .061-.007c.39-.044.834-.089 1.183.125a1.115 1.115 0 0 1 .118.083c.633.51-.006 1.3-.482 1.69a9.184 9.184 0 0 1-2.849 1.513 25.876 25.876 0 0 1-4.904 1.128 40.94 40.94 0 0 1-1.845.212 34.078 34.078 0 0 1-2.888.165 17.768 17.768 0 0 1-1.858-.077 22.867 22.867 0 0 1-1.425.048c-.267.002-.533 0-.8-.002a30.895 30.895 0 0 0 4.853 1.485l.071.018a76.989 76.989 0 0 1 1.857.475 14.955 14.955 0 0 1 2.755 1.004c.51.254 1.272.628 1.14 1.288a.917.917 0 0 1-.039.136 1.482 1.482 0 0 1-.01.028c-.525 1.344-2.623.863-3.73.523a13.881 13.881 0 0 1-.209-.066 19.15 19.15 0 0 1-.918-.325 16.275 16.275 0 0 1-4.36-2.434 15.234 15.234 0 0 0-3.733-2.17 77.569 77.569 0 0 1-1.966-.085 77.654 77.654 0 0 1-4.675-.416 21.761 21.761 0 0 1 5.197 1.955c.828.441 2.03.8 2.567 1.615.246.374.214.798-.13 1.1a1.073 1.073 0 0 1-.307.186c-.642.26-1.556-.015-2.133-.234-.836-.318-1.57-.84-2.32-1.315a73.064 73.064 0 0 0-2.344-1.425 152.616 152.616 0 0 1-.696-.408c-.562-.332-1.124-.663-1.696-.978a22.274 22.274 0 0 0-1.22-.633 5.906 5.906 0 0 0-.026-.013l-.166-.075a2.549 2.549 0 0 1-.553-.312 86.441 86.441 0 0 1-5.217-1.019c.327.453.64.914.955 1.374a37.265 37.265 0 0 0 1.664 2.31c.702.877 1.45 1.717 2.237 2.517 2.73.05 5.409.345 8.06 1.029 1.303.335 2.574.772 3.832 1.248a84.268 84.268 0 0 1 .715.274 13.995 13.995 0 0 1 2.748 1.349c.656.44 1.827 1.272 1.397 2.214a1.154 1.154 0 0 1-.008.019c-.458.957-1.928.608-2.771.352a15.697 15.697 0 0 1-.161-.05 14.363 14.363 0 0 1-2.534-1.174c-.26-.142-.52-.285-.78-.422l-.528-.28a75.146 75.146 0 0 0-2.756-1.41 47.732 47.732 0 0 0-3.665-1.547 17.554 17.554 0 0 0-1.793-.577c-.206-.054-.416-.098-.625-.142a26.967 26.967 0 0 1-.294-.062 34.136 34.136 0 0 0 3.64 3.012 76.78 76.78 0 0 0 1.472 1.015l.07.048a53.682 53.682 0 0 1 2.184 1.535.159.159 0 0 1 .022.02c.089.098.03.282-.113.256a.183.183 0 0 1-.023-.006 16.454 16.454 0 0 1-4.733-2.567c.054.073.11.145.166.214.47.574.968 1.122 1.493 1.646a22.139 22.139 0 0 0 3.376 2.787c.47.312.953.603 1.436.894a28.868 28.868 0 0 1 1.927 1.232c.622.445 1.389 1.035 1.389 1.869a1.39 1.39 0 0 1-.009.156 1.3 1.3 0 0 1-.167.51c-.313.54-.992.822-1.616.822a2.066 2.066 0 0 1-.021 0 3.897 3.897 0 0 1-.563-.048 7.423 7.423 0 0 1-2.382-.907 11.614 11.614 0 0 1-4.42-4.605 27.79 27.79 0 0 1-1.658-3.978c-.244-.688-.484-1.376-.743-2.051a39.428 39.428 0 0 1-1.283-1.178 33.05 33.05 0 0 1-2.866-3.15 5.86 5.86 0 0 0-.01.045 3.547 3.547 0 0 0-.075.698 2.873 2.873 0 0 0 .003.14c.03.6.149 1.189.267 1.776.224 1.12.655 2.198 1.21 3.194.182.327.374.65.565.972a22.57 22.57 0 0 1 .93 1.67 2.548 2.548 0 0 0 .005.01c.214.437.76 1.242.43 1.727a.632.632 0 0 1-.153.155 1 1 0 0 1-.603.186c-.469 0-.974-.258-1.33-.516a3.222 3.222 0 0 1-.076-.057c-.68-.525-1.162-1.265-1.563-2.014-1.493-2.783-1.818-6.16-.417-9.036a17.52 17.52 0 0 1-2.1-3.409.427.427 0 0 1-.005-.008.333.333 0 0 1-.026-.151.275.275 0 0 1 .018-.08c-6.966-1.64-13.716-4.107-20.199-7.173-.388-.183-.773-.372-1.159-.56.16 1.237.657 2.398 1.244 3.5a42.861 42.861 0 0 0 1.179 2.066.21.21 0 0 1 .072.049.206.206 0 0 1 .035.049 2.141 2.141 0 0 0 .391.523c.57.577 1.467 1.014 2.084 1.369a18.89 18.89 0 0 0 3.628 1.584 28.036 28.036 0 0 0 3.367.84c.642.121 1.286.225 1.934.315a14.54 14.54 0 0 0 .438.052l.203.022a5.288 5.288 0 0 1 .88.158 1.966 1.966 0 0 1 .056.016c.61.198 1.22.72 1.173 1.4a1.13 1.13 0 0 1-.03.193 1.173 1.173 0 0 1-.363.585c-.383.351-.979.548-1.479.648a5.198 5.198 0 0 1-.321.054 4.99 4.99 0 0 1-.674.045c-1.785 0-3.526-.915-5.038-1.83a53.194 53.194 0 0 1-.439-.269 27.371 27.371 0 0 1-4.283-3.295A30.948 30.948 0 0 0 67.5 588.3c.502.544 1.03 1.068 1.58 1.563a11.314 11.314 0 0 0 .39.331l.195.16a7.212 7.212 0 0 1 .83.76 7.085 7.085 0 0 0 .503.219 14.765 14.765 0 0 0 1.235.39 45.849 45.849 0 0 0 1.315.335c.362.088.724.177 1.085.272.556.148 1.153.326 1.729.56a5.748 5.748 0 0 1 2.069 1.327c.318.341.494.837.258 1.235a.88.88 0 0 1-.169.204 1.065 1.065 0 0 1-.035.03c-.474.393-1.168.271-1.74.153a132.152 132.152 0 0 0-.188-.038c-1.355-.278-2.564-1.006-3.699-1.776-.398-.27-.749-.591-1.103-.912a25.54 25.54 0 0 0-.35-.313c-.431-.38-.962-.812-1.33-1.302a5.579 5.579 0 0 1-1.158-.803 39.44 39.44 0 0 1-.302-.26 20.777 20.777 0 0 1 .034.244l.007.055a6.326 6.326 0 0 0 .124.705c.144.576.335 1.138.592 1.672.507 1.051 1.204 1.995 1.978 2.863a41.56 41.56 0 0 0 1.678 1.738c.3.3.6.598.895.902a9.642 9.642 0 0 0 .098.099c.384.384.89.84 1.227 1.346a1.98 1.98 0 0 1 .361.925c.072.893-.894.909-1.542.775a5.882 5.882 0 0 1-2.61-1.382 11.863 11.863 0 0 1-3.03-4.715 25.219 25.219 0 0 1-.25-.668c-.596-1.66-.927-3.392-.547-5.123a6.772 6.772 0 0 1 .067-.278 21.378 21.378 0 0 1-.894-.928 30.027 30.027 0 0 1-3-4.025 41.767 41.767 0 0 1-2.44-4.276c-.553-1.144-.962-2.344-1.032-3.612a130.814 130.814 0 0 1-9.673-5.298 66.413 66.413 0 0 1 .109.25l.015.036a22 22 0 0 0 .403.891 20.822 20.822 0 0 0 1.16 2.081 13.276 13.276 0 0 0 3.306 3.559 13.576 13.576 0 0 0 .131.095c1.889 1.359 4.715 2.717 4.905 5.358a1.415 1.415 0 0 1 .002.024c.04.744-.549.94-1.138.87a2.154 2.154 0 0 1-.55-.143 13.897 13.897 0 0 1-3.169-1.808c-3.631-2.776-6.088-7.294-6.27-11.88l-.286-.176a109.74 109.74 0 0 1-.765-.472 744.518 744.518 0 0 0-2.303-1.432c-2.456-1.525-4.564-2.86-6.843-4.643a52.799 52.799 0 0 1-2.033-1.676.076.076 0 0 1-.022-.036c-.051-.163.278-.621.386-.738a.234.234 0 0 1 .023-.021 25.643 25.643 0 0 1 .51.338c1.69 1.152 2.599 2.078 4.124 3.215a27.114 27.114 0 0 0 1.002.711 159.922 159.922 0 0 0 4.26 2.785 21.947 21.947 0 0 1 5.11-4.014 36.308 36.308 0 0 1 .683-.396c1.904-1.078 3.947-1.97 6.071-2.508a8.82 8.82 0 0 1 .04-.01c.503-.125 1.205-.25 1.686.028a.953.953 0 0 1 .355.36c.35.613-.266 1.294-.73 1.706a6.395 6.395 0 0 1-.141.12 15.013 15.013 0 0 1-2.073 1.39 245.84 245.84 0 0 1-.607.353 33.774 33.774 0 0 1-3.31 1.68c-1.1.485-2.227.925-3.373 1.29-.853.27-1.729.548-2.619.69a145.453 145.453 0 0 0 1.806 1.102 132.623 132.623 0 0 0 7.023 3.935 28.621 28.621 0 0 0 1.178.026c2.786.006 5.571-.394 8.243-1.18.118-.035.235-.074.353-.112a15.736 15.736 0 0 1 .145-.047 7.106 7.106 0 0 1 .402-.751l.05-.084a7.519 7.519 0 0 0 .31-.568 33.315 33.315 0 0 0 .373-.826c.134-.302.267-.605.411-.904a18.734 18.734 0 0 1 2.067-3.337c1.586-2.051 3.597-3.714 5.848-4.988a.32.32 0 0 1 .023-.012.302.302 0 0 1 .219-.014.342.342 0 0 1 .225.231c.14.486-.067.905-.284 1.334a24.282 24.282 0 0 1-1.06 1.892 27.197 27.197 0 0 1-2.42 3.308 23.882 23.882 0 0 1-4.535 4.148c.897-.35 1.778-.742 2.632-1.187a30.145 30.145 0 0 0 2.268-1.31c.356-.228.72-.52 1.102-.77a3.4 3.4 0 0 1 1.02-.489c.155-.038.272.107.244.245a.21.21 0 0 1-.02.056 2.088 2.088 0 0 1-.238.354c-.446.54-1.162.95-1.714 1.311a16.12 16.12 0 0 0-.005.003 23.099 23.099 0 0 1-.84.518 483.126 483.126 0 0 1 .855-.284 89.508 89.508 0 0 1 6.648-1.981 37.642 37.642 0 0 1 3.874-.755 10.221 10.221 0 0 0 .185-.028c.928-.145 2.143-.43 2.961.077a1.7 1.7 0 0 1 .158.11c1.586 1.253-2.333 3.456-3.184 3.85a14.263 14.263 0 0 1-5.528 1.237c-.435.014-.87.011-1.302-.007m11.773 18.102a27.223 27.223 0 0 1 .51.148 73.15 73.15 0 0 0 .636.19 22.51 22.51 0 0 1 3.512 1.396 74.57 74.57 0 0 1 .027.013 32.27 32.27 0 0 1 2.872 1.54m-25.375-14.06.036.012c.58-.353 1.32-.57 1.906-.746m-5.176-8.064c.162-.372.304-.748.446-1.078a8.075 8.075 0 0 1 .092-.207m1.498 21.152a16.709 16.709 0 0 1 .034.013l.043.017a38.796 38.796 0 0 0 .152.058m1.285-20.099-.014-.002.008-.005.006.007Zm17.58 14.389-.006-.004.007.001v.003Z" fill="#1eb9be" fill-rule="evenodd" data-name="Path 667"/></g><g data-name="Group 18"><g data-name="Group 15"><path d="M137.568 609.079c.01-.021.022-.043.009-.01a1.037 1.037 0 0 1-.002.004.635.635 0 0 0 .031-.104 1.482 1.482 0 0 0 .009-.04c-.01.053 0 .007 0-.005a.61.61 0 0 0 0-.006c.004-.038.012-.16.009-.082.002-.047-.003-.093-.003-.139a.65.65 0 0 1 0-.006.486.486 0 0 1 .003-.043c.01-.104.053-.231.14-.283a.213.213 0 0 1 .134-.025.39.39 0 0 1 .204.096c.208.184.196.533.108.773-.194.525-.722.812-1.267.812a1.55 1.55 0 0 1-.017 0 1.364 1.364 0 0 1-.124-.007 1.077 1.077 0 0 1-.603-.245 1.234 1.234 0 0 1-.369-.589 1.6 1.6 0 0 1-.038-.522 2.07 2.07 0 0 1 .29-.887c.147-.243.351-.453.622-.553.242-.089.548-.075.779.041a1.395 1.395 0 0 1 .567.557 1.602 1.602 0 0 1 .18.64 3.769 3.769 0 0 1 .014.219.239.239 0 0 1 0 .01.272.272 0 0 1-.236.257.265.265 0 0 1-.039.003.253.253 0 0 1-.09-.016.29.29 0 0 1-.169-.184 4.051 4.051 0 0 0-.013-.04c-.04-.12-.08-.218-.148-.334a6.084 6.084 0 0 0-.02-.032 5.55 5.55 0 0 0-.097-.16.06.06 0 0 0-.001-.002l-.032-.045a.999.999 0 0 1 .004.001.841.841 0 0 0-.07-.078.717.717 0 0 0-.04-.036l-.013-.012a1.115 1.115 0 0 1-.013-.012.414.414 0 0 1-.015-.014.124.124 0 0 1-.003-.003 1.991 1.991 0 0 0-.126-.062 47.797 47.797 0 0 0-.035-.017 1.712 1.712 0 0 1-.039-.02 1.724 1.724 0 0 0-.039-.02 23.105 23.105 0 0 0 .003.002c.059.028.013.006-.009-.002a.096.096 0 0 0-.004-.002.99.99 0 0 0-.098-.023.08.08 0 0 0-.003.002l-.06.003m-.006 0c-.016 0-.022 0 .005-.005a.667.667 0 0 0-.068.015.352.352 0 0 0-.144.07.515.515 0 0 0-.046.039 1.068 1.068 0 0 0-.146.174 1.73 1.73 0 0 0-.04.061c-.126.202-.231.444-.233.686a.59.59 0 0 0 0 .004c0 .079.017.168.05.247a.38.38 0 0 0 .195.212 1.142 1.142 0 0 0 .443.087 1.293 1.293 0 0 0 .182-.013.735.735 0 0 0 .507-.278.98.98 0 0 1-.001.002c-.03.04.004-.013.015-.03m-.305-1.128c.072.042-.021-.029.002-.004m-.347-.142a.056.056 0 0 1 .004 0 .114.114 0 0 1 .005 0c.02.003.036.007-.007-.002Zm.498.294c-.014-.018-.01-.012 0 .002m.165.952v.001l-.01.02m-.52-1.234a817.69 817.69 0 0 1-.005-.002l.01.005a.127.127 0 0 1 .001 0m-.208-.035a.508.508 0 0 0 .006 0 .508.508 0 0 1-.006 0Zm.088-.002.01.002a.279.279 0 0 1-.003 0m.639 1.243-.001.002m-.011.021v.001m-.653-1.272a.99.99 0 0 1 .098.023" fill="#1eb9be" fill-rule="evenodd" data-name="Path 666"/></g><g data-name="Group 14"><path d="m154.246 606.297.068.087a.56.56 0 0 0-.227-.198 1.938 1.938 0 0 0-.054-.023.682.682 0 0 0-.157-.047 1.059 1.059 0 0 0-.111-.011.711.711 0 0 0-.22.023 1.2 1.2 0 0 0-.238.096c-.201.102-.381.301-.499.5a1.409 1.409 0 0 0-.038.07 1.279 1.279 0 0 0-.136.422 1.16 1.16 0 0 0 .01.357 1.293 1.293 0 0 0 .002.014.837.837 0 0 0 .164.36.762.762 0 0 1 .012.015c.015.02.03.042.048.06a.178.178 0 0 0 .004.002c.026.025-.017-.027-.022-.032a.642.642 0 0 1 .012.017l.004.005a1.447 1.447 0 0 0 .01.012 39.829 39.829 0 0 0 .005.008 1.06 1.06 0 0 0 .132.15c.211.19.487.292.763.292a1.049 1.049 0 0 0 .562-.162 1.135 1.135 0 0 0 .54-.936c0-.069-.007-.14-.023-.21a.98.98 0 0 0-.01-.043 1.13 1.13 0 0 0-.452-.618 1.086 1.086 0 0 0-.304-.146.606.606 0 0 0-.185-.028c-.08 0-.159.014-.234.042-.135.05-.254.165-.254.317a.296.296 0 0 0 0 .014.352.352 0 0 0 .256.33c.018.006.099.035.038.01a2.029 2.029 0 0 0-.002 0 1.41 1.41 0 0 0-.031-.013.048.048 0 0 0 .001 0 1.121 1.121 0 0 1 .22-.052 5.148 5.148 0 0 0-.006.001l-.052.007a7.914 7.914 0 0 1-.057.007.627.627 0 0 1 .031-.002 1.674 1.674 0 0 1 .031-.002.209.209 0 0 0 .004 0 .127.127 0 0 0 .004 0 .066.066 0 0 0 .004-.001.028.028 0 0 0 .002 0 .009.009 0 0 0 .002-.001.001.001 0 0 0 0-.002c-.007-.005-.088-.013-.061-.005a.088.088 0 0 0 .002.001.529.529 0 0 0 .067.015.54.54 0 0 0 .063.006.452.452 0 0 0 .007 0c.064.002-.088-.026-.036-.008a.238.238 0 0 0 .004.002.04.04 0 0 0 .008 0c-.026-.015-.093-.064-.061-.034a.337.337 0 0 0 .003.003c.044.041-.05-.066-.014-.015a.429.429 0 0 0 .001 0 .179.179 0 0 0 .002.004c.03.039-.023-.071-.01-.018a.206.206 0 0 0 0 .003c.035.131.17.243.309.237a.343.343 0 0 0 .061-.009c.115-.026.23-.11.247-.23a.902.902 0 0 0 .008-.085.635.635 0 0 0-.045-.278.79.79 0 0 0-.015-.035 1.004 1.004 0 0 0-.142-.226 1.947 1.947 0 0 0-.015-.019Zm-.256.876a.113.113 0 0 0 .002.001.011.011 0 0 0 .004.002.03.03 0 0 1-.002 0 .113.113 0 0 1-.004-.003.2.2 0 0 1-.024-.015.352.352 0 0 0-.013-.01.708.708 0 0 0-.062-.034.325.325 0 0 0-.008-.003c-.018-.009-.052-.023.006 0 .06.024.024.01.007.004a.106.106 0 0 0-.002 0 .916.916 0 0 0-.038-.011.92.92 0 0 1-.038-.01.806.806 0 0 1-.114-.05.36.36 0 0 0-.016-.007 11.325 11.325 0 0 0-.005-.002 37.525 37.525 0 0 1 .054-.023 9.038 9.038 0 0 0 .056-.024 1.408 1.408 0 0 0-.298.173l.09-.07a1.08 1.08 0 0 0-.144.134.269.269 0 0 0 0 .002c-.015.025-.026.056-.042.08a.675.675 0 0 0 .007-.012.33.33 0 0 0 .014-.024m.26.468a.1.1 0 0 1 .018.004.012.012 0 0 1 .003 0 1.97 1.97 0 0 1-.003 0c-.012 0-.065-.005-.04-.005a.04.04 0 0 0 .003-.002c.022.003.045.005.067.005a.294.294 0 0 0 .006 0h.028a1.206 1.206 0 0 1 .014-.001.09.09 0 0 0 .003 0c.031-.003.038-.02-.04.005.016-.005.036-.006.053-.01.021-.005.041-.012.061-.019a.553.553 0 0 1 .005-.001c.063-.02-.07.036-.025.01a1.514 1.514 0 0 0 .113-.066c.049-.031-.068.062-.02.016a.54.54 0 0 1 .004-.004l.046-.044a1.295 1.295 0 0 0 .049-.055c.04-.047-.046.071-.02.024.024-.04.045-.076.064-.114a1.044 1.044 0 0 1 .003-.005c.017-.035-.013.033-.02.046a.156.156 0 0 1 0 .001c.003-.001.007-.018.01-.027m.001-.006a3.3 3.3 0 0 0 .009-.026.664.664 0 0 0 .007-.027.45.45 0 0 0 .007-.03.457.457 0 0 1 .006-.031.55.55 0 0 1 0-.003c.008-.028-.009.048-.008.057a.005.005 0 0 0 .002 0l.001-.032a.103.103 0 0 1 0-.001.039.039 0 0 1 0-.002.364.364 0 0 0 0-.014v-.041a1.846 1.846 0 0 1-.002-.018.326.326 0 0 1 0-.002c-.001-.057.02.092.004.033-.012-.04-.021-.078-.037-.117l.04.097a.76.76 0 0 0-.089-.151l.065.083a.792.792 0 0 0-.076-.08l-.041-.04c-.023-.025.04.021.046.03m-.607.275a1.516 1.516 0 0 0 0-.006.273.273 0 0 0-.003-.02.009.009 0 0 0 0-.002.32.32 0 0 1 .002.007c.01.026.016.055.023.083a1.025 1.025 0 0 0 .014.057l.01.036a.571.571 0 0 0 .01.036l.006.014a.099.099 0 0 1 .005.015c-.005-.02-.028-.073-.05-.087.021.014.04.044.059.06l.011.01a.178.178 0 0 1 .013.011.198.198 0 0 1 .002.003c.018.018-.025-.017-.033-.024.042.023.082.05.126.073a.884.884 0 0 0 .001 0c.042.022-.013-.01-.027-.01a.013.013 0 0 1 .002 0c.007.001.022.007.031.01m-.201-.258a64.077 64.077 0 0 1 0-.001.705.705 0 0 0 0-.019.383.383 0 0 1-.001-.026.185.185 0 0 1 0-.006l.003-.069a.168.168 0 0 0 0-.011.064.064 0 0 0 0 .001c-.003.012-.014.077-.005.043a.376.376 0 0 0 .006-.03l.001-.005a.407.407 0 0 1 .004-.018.561.561 0 0 1 .003-.01l.002-.006a.818.818 0 0 0 .004-.015.33.33 0 0 0 .008-.01m.033-.067a1.29 1.29 0 0 1 .003-.003l-.005.007c.018-.025.002-.003-.004.008a12.914 12.914 0 0 0-.003.001 25.552 25.552 0 0 0-.004.005l.005-.002m.227.511a1.866 1.866 0 0 1-.004 0 .967.967 0 0 1-.066-.017.062.062 0 0 1-.002 0m.318-.72c.018.006.06.02.003-.002m-.486.236c-.022.03-.011.017 0 .004m-.04.22c.001.02.002.033 0-.001m.045-.226a.857.857 0 0 0-.005.007.857.857 0 0 1 .005-.007Zm.483-.108c.003.001.004.002.002 0m-.53.316v-.004m.445.289a.304.304 0 0 0-.003.002m.055-.613h.002m-.226.624h-.003m-.001.001h-.003m.335-.564.002.001m.07.316-.001.002m-.144-.37a.568.568 0 0 1 .002 0m-.485.108a.208.208 0 0 1 .005-.005m-.01.008a4.388 4.388 0 0 1 .005-.006" fill="#1eb9be" fill-rule="evenodd" data-name="Path 665"/></g><g data-name="Group 13"><path d="M139.238 596.204a.747.747 0 0 0-.24-.182 1.024 1.024 0 0 0-.01-.006.873.873 0 0 0-.068-.028 1.303 1.303 0 0 0-.46-.073 1.262 1.262 0 0 0-.154.012.551.551 0 0 0-.09.02c-.2.064-.385.235-.508.388a1.18 1.18 0 0 0-.256.704c-.007.25.06.497.216.695a.723.723 0 0 0 .034.039c.098.108.219.176.34.247a1.573 1.573 0 0 1 .257.175c.054.048.072.11.065.17a.242.242 0 0 1-.16.192c-.375.126-.777-.191-.999-.495a1.46 1.46 0 0 1-.057-.083 1.57 1.57 0 0 1-.231-.836 1.8 1.8 0 0 1 .042-.39c.156-.709.746-1.234 1.436-1.407a1.131 1.131 0 0 1 .278-.034c.273 0 .547.088.785.197a1.61 1.61 0 0 1 .807.88 2.604 2.604 0 0 1 .232.963 1.435 1.435 0 0 1-.008.159 1.507 1.507 0 0 1-.57 1.009c-.322.256-.73.412-1.145.404a2.35 2.35 0 0 1-.236-.017 1.928 1.928 0 0 1-.35-.073 1.77 1.77 0 0 1-.495-.282 8.05 8.05 0 0 1-.007-.005.393.393 0 0 1-.023-.019c-.216-.186-.091-.503.19-.493a.387.387 0 0 1 .038.003 1.869 1.869 0 0 0 .22.015c.074.001.148.002.221.008.075.007.15.012.224.012a1.533 1.533 0 0 0 .018 0c.045 0 .089-.003.133-.006a2.43 2.43 0 0 1 .007 0c.023-.003.02-.002-.009.002l.112-.015a1.114 1.114 0 0 1 .002 0c.083-.01-.032.013.06-.01.028-.007.057-.012.086-.02a1.313 1.313 0 0 0 .091-.026 4.156 4.156 0 0 0 .032-.01 1.658 1.658 0 0 0 .158-.087 24.187 24.187 0 0 0 .056-.036c.082-.051-.041.047.034-.025a1.166 1.166 0 0 1 .023-.023l.006-.005a.996.996 0 0 0 .03-.028.942.942 0 0 0 .046-.05l.036-.04a.065.065 0 0 0 .001-.002 2.905 2.905 0 0 0 .015-.025 1.25 1.25 0 0 0 .08-.15c-.033.075.015-.056.026-.094a.127.127 0 0 0 .001-.006.513.513 0 0 0 .005-.029 9.304 9.304 0 0 0 .001-.01.612.612 0 0 0 .005-.093c-.001-.138-.024-.23-.069-.395a3.871 3.871 0 0 0-.14-.429.244.244 0 0 0-.004-.01 1.525 1.525 0 0 0-.063-.12.692.692 0 0 0-.01-.017 4.169 4.169 0 0 1-.01-.017 12.07 12.07 0 0 1-.008-.012m-.044-.055a37.31 37.31 0 0 1 .007.007.161.161 0 0 1 .026.031.583.583 0 0 1 .005.008m.17 1.425c-.036.037-.016.02-.001.002m-.371.28a.178.178 0 0 0-.005.003 4.156 4.156 0 0 1-.038.012m.552-.624c.002-.029 0-.015-.002.004m-.001.01a9.304 9.304 0 0 0 .001-.01 1.98 1.98 0 0 0 .002-.004m-2.691-.235v.004m2.34-.92a7.343 7.343 0 0 1 0 .001m.22 1.47-.036.04m.034-.038a.121.121 0 0 1-.004.005m-.38.286a.194.194 0 0 1 .014-.006Z" fill="#1eb9be" fill-rule="evenodd" data-name="Path 664"/></g></g><g data-name="Group 16"><g data-name="Group 15"><path d="M47.568 615.079c.01-.021.022-.043.009-.01a1.037 1.037 0 0 1-.002.004.635.635 0 0 0 .031-.104 1.482 1.482 0 0 0 .009-.04c-.01.053 0 .007 0-.005a.61.61 0 0 0 0-.006c.004-.038.012-.16.009-.082.002-.047-.003-.093-.003-.139a.65.65 0 0 1 0-.006.486.486 0 0 1 .003-.043c.01-.104.053-.231.14-.283a.213.213 0 0 1 .134-.025.39.39 0 0 1 .204.096c.208.184.196.533.108.773-.194.525-.722.812-1.267.812a1.55 1.55 0 0 1-.017 0 1.364 1.364 0 0 1-.124-.007 1.077 1.077 0 0 1-.603-.245 1.234 1.234 0 0 1-.369-.589 1.6 1.6 0 0 1-.038-.522 2.07 2.07 0 0 1 .29-.887c.147-.243.351-.453.622-.553.242-.089.548-.075.779.041a1.395 1.395 0 0 1 .567.557 1.602 1.602 0 0 1 .18.64 3.769 3.769 0 0 1 .014.219.239.239 0 0 1 0 .01.272.272 0 0 1-.236.257.265.265 0 0 1-.039.003.253.253 0 0 1-.09-.016.29.29 0 0 1-.169-.184 4.051 4.051 0 0 0-.013-.04c-.04-.12-.08-.218-.148-.334a6.084 6.084 0 0 0-.02-.032 5.55 5.55 0 0 0-.097-.16.06.06 0 0 0-.001-.002l-.032-.045a.999.999 0 0 1 .004.001.841.841 0 0 0-.07-.078.717.717 0 0 0-.04-.036l-.013-.012a1.115 1.115 0 0 1-.013-.012.414.414 0 0 1-.015-.014.124.124 0 0 1-.003-.003 1.991 1.991 0 0 0-.126-.062 47.797 47.797 0 0 0-.035-.017 1.712 1.712 0 0 1-.039-.02 1.724 1.724 0 0 0-.039-.02 23.105 23.105 0 0 0 .003.002c.059.028.013.006-.009-.002a.096.096 0 0 0-.004-.002.99.99 0 0 0-.098-.023.08.08 0 0 0-.003.002l-.06.003m-.006 0c-.016 0-.022 0 .005-.005a.667.667 0 0 0-.068.015.352.352 0 0 0-.144.07.515.515 0 0 0-.046.039 1.068 1.068 0 0 0-.146.174 1.73 1.73 0 0 0-.04.061c-.126.202-.231.444-.233.686a.59.59 0 0 0 0 .004c0 .079.017.168.05.247a.38.38 0 0 0 .195.212 1.142 1.142 0 0 0 .443.087 1.293 1.293 0 0 0 .182-.013.735.735 0 0 0 .507-.278.98.98 0 0 1-.001.002c-.03.04.004-.013.015-.03m-.305-1.128c.072.042-.021-.029.002-.004m-.347-.142a.056.056 0 0 1 .004 0 .114.114 0 0 1 .005 0c.02.003.036.007-.007-.002Zm.498.294c-.014-.018-.01-.012 0 .002m.165.952v.001l-.01.02m-.52-1.234a817.69 817.69 0 0 1-.005-.002l.01.005a.127.127 0 0 1 .001 0m-.208-.035a.508.508 0 0 0 .006 0 .508.508 0 0 1-.006 0Zm.088-.002.01.002a.279.279 0 0 1-.003 0m.639 1.243-.001.002m-.011.021v.001m-.653-1.272a.99.99 0 0 1 .098.023" fill="#1eb9be" fill-rule="evenodd" data-name="Path 666"/></g><g data-name="Group 14"><path d="m64.246 612.297.068.087a.56.56 0 0 0-.227-.198 1.938 1.938 0 0 0-.054-.023.682.682 0 0 0-.157-.047 1.059 1.059 0 0 0-.111-.011.711.711 0 0 0-.22.023 1.2 1.2 0 0 0-.238.096c-.201.102-.381.301-.499.5a1.409 1.409 0 0 0-.038.07 1.279 1.279 0 0 0-.136.422 1.16 1.16 0 0 0 .01.357 1.293 1.293 0 0 0 .002.014.837.837 0 0 0 .164.36.762.762 0 0 1 .012.015c.015.02.03.042.048.06a.178.178 0 0 0 .004.002c.026.025-.017-.027-.022-.032a.642.642 0 0 1 .012.017l.004.005a1.447 1.447 0 0 0 .01.012 39.829 39.829 0 0 0 .005.008 1.06 1.06 0 0 0 .132.15c.211.19.487.292.763.292a1.049 1.049 0 0 0 .562-.162 1.135 1.135 0 0 0 .54-.936c0-.069-.007-.14-.023-.21a.98.98 0 0 0-.01-.043 1.13 1.13 0 0 0-.452-.618 1.086 1.086 0 0 0-.304-.146.606.606 0 0 0-.185-.028c-.08 0-.159.014-.234.042-.135.05-.254.165-.254.317a.296.296 0 0 0 0 .014.352.352 0 0 0 .256.33c.018.006.099.035.038.01a2.029 2.029 0 0 0-.002 0 1.41 1.41 0 0 0-.031-.013.048.048 0 0 0 .001 0 1.121 1.121 0 0 1 .22-.052 5.148 5.148 0 0 0-.006.001l-.052.007a7.914 7.914 0 0 1-.057.007.627.627 0 0 1 .031-.002 1.674 1.674 0 0 1 .031-.002.209.209 0 0 0 .004 0 .127.127 0 0 0 .004 0 .066.066 0 0 0 .004-.001.028.028 0 0 0 .002 0 .009.009 0 0 0 .002-.001.001.001 0 0 0 0-.002c-.007-.005-.088-.013-.061-.005a.088.088 0 0 0 .002.001.529.529 0 0 0 .067.015.54.54 0 0 0 .063.006.452.452 0 0 0 .007 0c.064.002-.088-.026-.036-.008a.238.238 0 0 0 .004.002.04.04 0 0 0 .008 0c-.026-.015-.093-.064-.061-.034a.337.337 0 0 0 .003.003c.044.041-.05-.066-.014-.015a.429.429 0 0 0 .001 0 .179.179 0 0 0 .002.004c.03.039-.023-.071-.01-.018a.206.206 0 0 0 0 .003c.035.131.17.243.309.237a.343.343 0 0 0 .061-.009c.115-.026.23-.11.247-.23a.902.902 0 0 0 .008-.085.635.635 0 0 0-.045-.278.79.79 0 0 0-.015-.035 1.004 1.004 0 0 0-.142-.226 1.947 1.947 0 0 0-.015-.019Zm-.256.876a.113.113 0 0 0 .002.001.011.011 0 0 0 .004.002.03.03 0 0 1-.002 0 .113.113 0 0 1-.004-.003.2.2 0 0 1-.024-.015.352.352 0 0 0-.013-.01.708.708 0 0 0-.062-.034.325.325 0 0 0-.008-.003c-.018-.009-.052-.023.006 0 .06.024.024.01.007.004a.106.106 0 0 0-.002 0 .916.916 0 0 0-.038-.011.92.92 0 0 1-.038-.01.806.806 0 0 1-.114-.05.36.36 0 0 0-.016-.007 11.325 11.325 0 0 0-.005-.002 37.525 37.525 0 0 1 .054-.023 9.038 9.038 0 0 0 .056-.024 1.408 1.408 0 0 0-.298.173l.09-.07a1.08 1.08 0 0 0-.144.134.269.269 0 0 0 0 .002c-.015.025-.026.056-.042.08a.675.675 0 0 0 .007-.012.33.33 0 0 0 .014-.024m.26.468a.1.1 0 0 1 .018.004.012.012 0 0 1 .003 0 1.97 1.97 0 0 1-.003 0c-.012 0-.065-.005-.04-.005a.04.04 0 0 0 .003-.002c.022.003.045.005.067.005a.294.294 0 0 0 .006 0h.028a1.206 1.206 0 0 1 .014-.001.09.09 0 0 0 .003 0c.031-.003.038-.02-.04.005.016-.005.036-.006.053-.01.021-.005.041-.012.061-.019a.553.553 0 0 1 .005-.001c.063-.02-.07.036-.025.01a1.514 1.514 0 0 0 .113-.066c.049-.031-.068.062-.02.016a.54.54 0 0 1 .004-.004l.046-.044a1.295 1.295 0 0 0 .049-.055c.04-.047-.046.071-.02.024.024-.04.045-.076.064-.114a1.044 1.044 0 0 1 .003-.005c.017-.035-.013.033-.02.046a.156.156 0 0 1 0 .001c.003-.001.007-.018.01-.027m.001-.006a3.3 3.3 0 0 0 .009-.026.664.664 0 0 0 .007-.027.45.45 0 0 0 .007-.03.457.457 0 0 1 .006-.031.55.55 0 0 1 0-.003c.008-.028-.009.048-.008.057a.005.005 0 0 0 .002 0l.001-.032a.103.103 0 0 1 0-.001.039.039 0 0 1 0-.002.364.364 0 0 0 0-.014v-.041a1.846 1.846 0 0 1-.002-.018.326.326 0 0 1 0-.002c-.001-.057.02.092.004.033-.012-.04-.021-.078-.037-.117l.04.097a.76.76 0 0 0-.089-.151l.065.083a.792.792 0 0 0-.076-.08l-.041-.04c-.023-.025.04.021.046.03m-.607.275a1.516 1.516 0 0 0 0-.006.273.273 0 0 0-.003-.02.009.009 0 0 0 0-.002.32.32 0 0 1 .002.007c.01.026.016.055.023.083a1.025 1.025 0 0 0 .014.057l.01.036a.571.571 0 0 0 .01.036l.006.014a.099.099 0 0 1 .005.015c-.005-.02-.028-.073-.05-.087.021.014.04.044.059.06l.011.01a.178.178 0 0 1 .013.011.198.198 0 0 1 .002.003c.018.018-.025-.017-.033-.024.042.023.082.05.126.073a.884.884 0 0 0 .001 0c.042.022-.013-.01-.027-.01a.013.013 0 0 1 .002 0c.007.001.022.007.031.01m-.201-.258a64.077 64.077 0 0 1 0-.001.705.705 0 0 0 0-.019.383.383 0 0 1-.001-.026.185.185 0 0 1 0-.006l.003-.069a.168.168 0 0 0 0-.011.064.064 0 0 0 0 .001c-.003.012-.014.077-.005.043a.376.376 0 0 0 .006-.03l.001-.005a.407.407 0 0 1 .004-.018.561.561 0 0 1 .003-.01l.002-.006a.818.818 0 0 0 .004-.015.33.33 0 0 0 .008-.01m.033-.067a1.29 1.29 0 0 1 .003-.003l-.005.007c.018-.025.002-.003-.004.008a12.914 12.914 0 0 0-.003.001 25.552 25.552 0 0 0-.004.005l.005-.002m.227.511a1.866 1.866 0 0 1-.004 0 .967.967 0 0 1-.066-.017.062.062 0 0 1-.002 0m.318-.72c.018.006.06.02.003-.002m-.486.236c-.022.03-.011.017 0 .004m-.04.22c.001.02.002.033 0-.001m.045-.226a.857.857 0 0 0-.005.007.857.857 0 0 1 .005-.007Zm.483-.108c.003.001.004.002.002 0m-.53.316v-.004m.445.289a.304.304 0 0 0-.003.002m.055-.613h.002m-.226.624h-.003m-.001.001h-.003m.335-.564.002.001m.07.316-.001.002m-.144-.37a.568.568 0 0 1 .002 0m-.485.108a.208.208 0 0 1 .005-.005m-.01.008a4.388 4.388 0 0 1 .005-.006" fill="#1eb9be" fill-rule="evenodd" data-name="Path 665"/></g><g data-name="Group 13"><path d="M49.238 602.204a.747.747 0 0 0-.24-.182 1.024 1.024 0 0 0-.01-.006.873.873 0 0 0-.068-.028 1.303 1.303 0 0 0-.46-.073 1.262 1.262 0 0 0-.154.012.551.551 0 0 0-.09.02c-.2.064-.385.235-.508.388a1.18 1.18 0 0 0-.256.704c-.007.25.06.497.216.695a.723.723 0 0 0 .034.039c.098.108.219.176.34.247a1.573 1.573 0 0 1 .257.175c.054.048.072.11.065.17a.242.242 0 0 1-.16.192c-.375.126-.777-.191-.999-.495a1.46 1.46 0 0 1-.057-.083 1.57 1.57 0 0 1-.231-.836 1.8 1.8 0 0 1 .042-.39c.156-.709.746-1.234 1.436-1.407a1.131 1.131 0 0 1 .278-.034c.273 0 .547.088.785.197a1.61 1.61 0 0 1 .807.88 2.604 2.604 0 0 1 .232.963 1.435 1.435 0 0 1-.008.159 1.507 1.507 0 0 1-.57 1.009c-.322.256-.73.412-1.145.404a2.35 2.35 0 0 1-.236-.017 1.928 1.928 0 0 1-.35-.073 1.77 1.77 0 0 1-.495-.282 8.05 8.05 0 0 1-.007-.005.393.393 0 0 1-.023-.019c-.216-.186-.091-.503.19-.493a.387.387 0 0 1 .038.003 1.869 1.869 0 0 0 .22.015c.074.001.148.002.221.008.075.007.15.012.224.012a1.533 1.533 0 0 0 .018 0c.045 0 .089-.003.133-.006a2.43 2.43 0 0 1 .007 0c.023-.003.02-.002-.009.002l.112-.015a1.114 1.114 0 0 1 .002 0c.083-.01-.032.013.06-.01.028-.007.057-.012.086-.02a1.313 1.313 0 0 0 .091-.026 4.156 4.156 0 0 0 .032-.01 1.658 1.658 0 0 0 .158-.087 24.187 24.187 0 0 0 .056-.036c.082-.051-.041.047.034-.025a1.166 1.166 0 0 1 .023-.023l.006-.005a.996.996 0 0 0 .03-.028.942.942 0 0 0 .046-.05l.036-.04a.065.065 0 0 0 .001-.002 2.905 2.905 0 0 0 .015-.025 1.25 1.25 0 0 0 .08-.15c-.033.075.015-.056.026-.094a.127.127 0 0 0 .001-.006.513.513 0 0 0 .005-.029 9.304 9.304 0 0 0 .001-.01.612.612 0 0 0 .005-.093c-.001-.138-.024-.23-.069-.395a3.871 3.871 0 0 0-.14-.429.244.244 0 0 0-.004-.01 1.525 1.525 0 0 0-.063-.12.692.692 0 0 0-.01-.017 4.169 4.169 0 0 1-.01-.017 12.07 12.07 0 0 1-.008-.012m-.044-.055a37.31 37.31 0 0 1 .007.007.161.161 0 0 1 .026.031.583.583 0 0 1 .005.008m.17 1.425c-.036.037-.016.02-.001.002m-.371.28a.178.178 0 0 0-.005.003 4.156 4.156 0 0 1-.038.012m.552-.624c.002-.029 0-.015-.002.004m-.001.01a9.304 9.304 0 0 0 .001-.01 1.98 1.98 0 0 0 .002-.004m-2.691-.235v.004m2.34-.92a7.343 7.343 0 0 1 0 .001m.22 1.47-.036.04m.034-.038a.121.121 0 0 1-.004.005m-.38.286a.194.194 0 0 1 .014-.006Z" fill="#1eb9be" fill-rule="evenodd" data-name="Path 664"/></g></g></g></svg>